<?xml version="1.0" encoding="utf-8"?>
<svg xmlns="http://www.w3.org/2000/svg" xmlns:xlink="http://www.w3.org/1999/xlink" width="600" height="400" viewBox="0 0 2400 1600">
<defs>
  <clipPath id="clip8300">
    <rect x="0" y="0" width="2400" height="1600"/>
  </clipPath>
</defs>
<path clip-path="url(#clip8300)" d="
M0 1600 L2400 1600 L2400 0 L0 0  Z
  " fill="#ffffff" fill-rule="evenodd" fill-opacity="1"/>
<defs>
  <clipPath id="clip8301">
    <rect x="480" y="0" width="1681" height="1600"/>
  </clipPath>
</defs>
<path clip-path="url(#clip8300)" d="
M242.516 1425.62 L2352.76 1425.62 L2352.76 47.2441 L242.516 47.2441  Z
  " fill="#ffffff" fill-rule="evenodd" fill-opacity="1"/>
<defs>
  <clipPath id="clip8302">
    <rect x="242" y="47" width="2111" height="1379"/>
  </clipPath>
</defs>
<polyline clip-path="url(#clip8302)" style="stroke:#000000; stroke-width:2; stroke-opacity:0.1; fill:none" points="
  358.583,1425.62 358.583,47.2441 
  "/>
<polyline clip-path="url(#clip8302)" style="stroke:#000000; stroke-width:2; stroke-opacity:0.1; fill:none" points="
  828.11,1425.62 828.11,47.2441 
  "/>
<polyline clip-path="url(#clip8302)" style="stroke:#000000; stroke-width:2; stroke-opacity:0.1; fill:none" points="
  1297.64,1425.62 1297.64,47.2441 
  "/>
<polyline clip-path="url(#clip8302)" style="stroke:#000000; stroke-width:2; stroke-opacity:0.1; fill:none" points="
  1767.16,1425.62 1767.16,47.2441 
  "/>
<polyline clip-path="url(#clip8302)" style="stroke:#000000; stroke-width:2; stroke-opacity:0.1; fill:none" points="
  2236.69,1425.62 2236.69,47.2441 
  "/>
<polyline clip-path="url(#clip8302)" style="stroke:#000000; stroke-width:2; stroke-opacity:0.1; fill:none" points="
  242.516,1386.61 2352.76,1386.61 
  "/>
<polyline clip-path="url(#clip8302)" style="stroke:#000000; stroke-width:2; stroke-opacity:0.1; fill:none" points="
  242.516,1136.54 2352.76,1136.54 
  "/>
<polyline clip-path="url(#clip8302)" style="stroke:#000000; stroke-width:2; stroke-opacity:0.1; fill:none" points="
  242.516,886.472 2352.76,886.472 
  "/>
<polyline clip-path="url(#clip8302)" style="stroke:#000000; stroke-width:2; stroke-opacity:0.1; fill:none" points="
  242.516,636.404 2352.76,636.404 
  "/>
<polyline clip-path="url(#clip8302)" style="stroke:#000000; stroke-width:2; stroke-opacity:0.1; fill:none" points="
  242.516,386.336 2352.76,386.336 
  "/>
<polyline clip-path="url(#clip8302)" style="stroke:#000000; stroke-width:2; stroke-opacity:0.1; fill:none" points="
  242.516,136.268 2352.76,136.268 
  "/>
<polyline clip-path="url(#clip8300)" style="stroke:#000000; stroke-width:4; stroke-opacity:1; fill:none" points="
  242.516,1425.62 2352.76,1425.62 
  "/>
<polyline clip-path="url(#clip8300)" style="stroke:#000000; stroke-width:4; stroke-opacity:1; fill:none" points="
  242.516,1425.62 242.516,47.2441 
  "/>
<polyline clip-path="url(#clip8300)" style="stroke:#000000; stroke-width:4; stroke-opacity:1; fill:none" points="
  358.583,1425.62 358.583,1404.94 
  "/>
<polyline clip-path="url(#clip8300)" style="stroke:#000000; stroke-width:4; stroke-opacity:1; fill:none" points="
  828.11,1425.62 828.11,1404.94 
  "/>
<polyline clip-path="url(#clip8300)" style="stroke:#000000; stroke-width:4; stroke-opacity:1; fill:none" points="
  1297.64,1425.62 1297.64,1404.94 
  "/>
<polyline clip-path="url(#clip8300)" style="stroke:#000000; stroke-width:4; stroke-opacity:1; fill:none" points="
  1767.16,1425.62 1767.16,1404.94 
  "/>
<polyline clip-path="url(#clip8300)" style="stroke:#000000; stroke-width:4; stroke-opacity:1; fill:none" points="
  2236.69,1425.62 2236.69,1404.94 
  "/>
<polyline clip-path="url(#clip8300)" style="stroke:#000000; stroke-width:4; stroke-opacity:1; fill:none" points="
  242.516,1386.61 274.17,1386.61 
  "/>
<polyline clip-path="url(#clip8300)" style="stroke:#000000; stroke-width:4; stroke-opacity:1; fill:none" points="
  242.516,1136.54 274.17,1136.54 
  "/>
<polyline clip-path="url(#clip8300)" style="stroke:#000000; stroke-width:4; stroke-opacity:1; fill:none" points="
  242.516,886.472 274.17,886.472 
  "/>
<polyline clip-path="url(#clip8300)" style="stroke:#000000; stroke-width:4; stroke-opacity:1; fill:none" points="
  242.516,636.404 274.17,636.404 
  "/>
<polyline clip-path="url(#clip8300)" style="stroke:#000000; stroke-width:4; stroke-opacity:1; fill:none" points="
  242.516,386.336 274.17,386.336 
  "/>
<polyline clip-path="url(#clip8300)" style="stroke:#000000; stroke-width:4; stroke-opacity:1; fill:none" points="
  242.516,136.268 274.17,136.268 
  "/>
<g clip-path="url(#clip8300)">
<text style="fill:#000000; fill-opacity:1; font-family:Arial,Helvetica Neue,Helvetica,sans-serif; font-size:48px; text-anchor:middle;" transform="rotate(0, 358.583, 1479.62)" x="358.583" y="1479.62">14</text>
</g>
<g clip-path="url(#clip8300)">
<text style="fill:#000000; fill-opacity:1; font-family:Arial,Helvetica Neue,Helvetica,sans-serif; font-size:48px; text-anchor:middle;" transform="rotate(0, 828.11, 1479.62)" x="828.11" y="1479.62">16</text>
</g>
<g clip-path="url(#clip8300)">
<text style="fill:#000000; fill-opacity:1; font-family:Arial,Helvetica Neue,Helvetica,sans-serif; font-size:48px; text-anchor:middle;" transform="rotate(0, 1297.64, 1479.62)" x="1297.64" y="1479.62">18</text>
</g>
<g clip-path="url(#clip8300)">
<text style="fill:#000000; fill-opacity:1; font-family:Arial,Helvetica Neue,Helvetica,sans-serif; font-size:48px; text-anchor:middle;" transform="rotate(0, 1767.16, 1479.62)" x="1767.16" y="1479.62">20</text>
</g>
<g clip-path="url(#clip8300)">
<text style="fill:#000000; fill-opacity:1; font-family:Arial,Helvetica Neue,Helvetica,sans-serif; font-size:48px; text-anchor:middle;" transform="rotate(0, 2236.69, 1479.62)" x="2236.69" y="1479.62">22</text>
</g>
<g clip-path="url(#clip8300)">
<text style="fill:#000000; fill-opacity:1; font-family:Arial,Helvetica Neue,Helvetica,sans-serif; font-size:48px; text-anchor:end;" transform="rotate(0, 218.516, 1404.11)" x="218.516" y="1404.11">0.00</text>
</g>
<g clip-path="url(#clip8300)">
<text style="fill:#000000; fill-opacity:1; font-family:Arial,Helvetica Neue,Helvetica,sans-serif; font-size:48px; text-anchor:end;" transform="rotate(0, 218.516, 1154.04)" x="218.516" y="1154.04">0.05</text>
</g>
<g clip-path="url(#clip8300)">
<text style="fill:#000000; fill-opacity:1; font-family:Arial,Helvetica Neue,Helvetica,sans-serif; font-size:48px; text-anchor:end;" transform="rotate(0, 218.516, 903.972)" x="218.516" y="903.972">0.10</text>
</g>
<g clip-path="url(#clip8300)">
<text style="fill:#000000; fill-opacity:1; font-family:Arial,Helvetica Neue,Helvetica,sans-serif; font-size:48px; text-anchor:end;" transform="rotate(0, 218.516, 653.904)" x="218.516" y="653.904">0.15</text>
</g>
<g clip-path="url(#clip8300)">
<text style="fill:#000000; fill-opacity:1; font-family:Arial,Helvetica Neue,Helvetica,sans-serif; font-size:48px; text-anchor:end;" transform="rotate(0, 218.516, 403.836)" x="218.516" y="403.836">0.20</text>
</g>
<g clip-path="url(#clip8300)">
<text style="fill:#000000; fill-opacity:1; font-family:Arial,Helvetica Neue,Helvetica,sans-serif; font-size:48px; text-anchor:end;" transform="rotate(0, 218.516, 153.768)" x="218.516" y="153.768">0.25</text>
</g>
<g clip-path="url(#clip8300)">
<text style="fill:#000000; fill-opacity:1; font-family:Arial,Helvetica Neue,Helvetica,sans-serif; font-size:66px; text-anchor:middle;" transform="rotate(0, 1297.64, 1559.48)" x="1297.64" y="1559.48">No. of Support vectors</text>
</g>
<g clip-path="url(#clip8300)">
<text style="fill:#000000; fill-opacity:1; font-family:Arial,Helvetica Neue,Helvetica,sans-serif; font-size:66px; text-anchor:middle;" transform="rotate(-90, 89.2861, 736.431)" x="89.2861" y="736.431">count</text>
</g>
<path clip-path="url(#clip8302)" d="
M358.583 1336.59 L358.583 1386.61 L593.347 1386.61 L593.347 1336.59 L358.583 1336.59 L358.583 1336.59  Z
  " fill="#009af9" fill-rule="evenodd" fill-opacity="1"/>
<polyline clip-path="url(#clip8302)" style="stroke:#000000; stroke-width:4; stroke-opacity:1; fill:none" points="
  358.583,1336.59 358.583,1386.61 593.347,1386.61 593.347,1336.59 358.583,1336.59 
  "/>
<path clip-path="url(#clip8302)" d="
M593.347 786.445 L593.347 1386.61 L828.11 1386.61 L828.11 786.445 L593.347 786.445 L593.347 786.445  Z
  " fill="#009af9" fill-rule="evenodd" fill-opacity="1"/>
<polyline clip-path="url(#clip8302)" style="stroke:#000000; stroke-width:4; stroke-opacity:1; fill:none" points="
  593.347,786.445 593.347,1386.61 828.11,1386.61 828.11,786.445 593.347,786.445 
  "/>
<path clip-path="url(#clip8302)" d="
M828.11 636.404 L828.11 1386.61 L1062.87 1386.61 L1062.87 636.404 L828.11 636.404 L828.11 636.404  Z
  " fill="#009af9" fill-rule="evenodd" fill-opacity="1"/>
<polyline clip-path="url(#clip8302)" style="stroke:#000000; stroke-width:4; stroke-opacity:1; fill:none" points="
  828.11,636.404 828.11,1386.61 1062.87,1386.61 1062.87,636.404 828.11,636.404 
  "/>
<path clip-path="url(#clip8302)" d="
M1062.87 336.323 L1062.87 1386.61 L1297.64 1386.61 L1297.64 336.323 L1062.87 336.323 L1062.87 336.323  Z
  " fill="#009af9" fill-rule="evenodd" fill-opacity="1"/>
<polyline clip-path="url(#clip8302)" style="stroke:#000000; stroke-width:4; stroke-opacity:1; fill:none" points="
  1062.87,336.323 1062.87,1386.61 1297.64,1386.61 1297.64,336.323 1062.87,336.323 
  "/>
<path clip-path="url(#clip8302)" d="
M1297.64 86.2547 L1297.64 1386.61 L1532.4 1386.61 L1532.4 86.2547 L1297.64 86.2547 L1297.64 86.2547  Z
  " fill="#009af9" fill-rule="evenodd" fill-opacity="1"/>
<polyline clip-path="url(#clip8302)" style="stroke:#000000; stroke-width:4; stroke-opacity:1; fill:none" points="
  1297.64,86.2547 1297.64,1386.61 1532.4,1386.61 1532.4,86.2547 1297.64,86.2547 
  "/>
<path clip-path="url(#clip8302)" d="
M1532.4 686.418 L1532.4 1386.61 L1767.16 1386.61 L1767.16 686.418 L1532.4 686.418 L1532.4 686.418  Z
  " fill="#009af9" fill-rule="evenodd" fill-opacity="1"/>
<polyline clip-path="url(#clip8302)" style="stroke:#000000; stroke-width:4; stroke-opacity:1; fill:none" points="
  1532.4,686.418 1532.4,1386.61 1767.16,1386.61 1767.16,686.418 1532.4,686.418 
  "/>
<path clip-path="url(#clip8302)" d="
M1767.16 936.486 L1767.16 1386.61 L2001.93 1386.61 L2001.93 936.486 L1767.16 936.486 L1767.16 936.486  Z
  " fill="#009af9" fill-rule="evenodd" fill-opacity="1"/>
<polyline clip-path="url(#clip8302)" style="stroke:#000000; stroke-width:4; stroke-opacity:1; fill:none" points="
  1767.16,936.486 1767.16,1386.61 2001.93,1386.61 2001.93,936.486 1767.16,936.486 
  "/>
<path clip-path="url(#clip8302)" d="
M2001.93 1286.58 L2001.93 1386.61 L2236.69 1386.61 L2236.69 1286.58 L2001.93 1286.58 L2001.93 1286.58  Z
  " fill="#009af9" fill-rule="evenodd" fill-opacity="1"/>
<polyline clip-path="url(#clip8302)" style="stroke:#000000; stroke-width:4; stroke-opacity:1; fill:none" points="
  2001.93,1286.58 2001.93,1386.61 2236.69,1386.61 2236.69,1286.58 2001.93,1286.58 
  "/>
<path clip-path="url(#clip8300)" d="
M1957.82 251.724 L2280.76 251.724 L2280.76 130.764 L1957.82 130.764  Z
  " fill="#ffffff" fill-rule="evenodd" fill-opacity="1"/>
<polyline clip-path="url(#clip8300)" style="stroke:#000000; stroke-width:4; stroke-opacity:1; fill:none" points="
  1957.82,251.724 2280.76,251.724 2280.76,130.764 1957.82,130.764 1957.82,251.724 
  "/>
<path clip-path="url(#clip8300)" d="
M1981.82 215.436 L2125.82 215.436 L2125.82 167.052 L1981.82 167.052 L1981.82 215.436  Z
  " fill="#009af9" fill-rule="evenodd" fill-opacity="1"/>
<polyline clip-path="url(#clip8300)" style="stroke:#000000; stroke-width:4; stroke-opacity:1; fill:none" points="
  1981.82,215.436 2125.82,215.436 2125.82,167.052 1981.82,167.052 1981.82,215.436 
  "/>
<g clip-path="url(#clip8300)">
<text style="fill:#000000; fill-opacity:1; font-family:Arial,Helvetica Neue,Helvetica,sans-serif; font-size:48px; text-anchor:start;" transform="rotate(0, 2149.82, 208.744)" x="2149.82" y="208.744">true</text>
</g>
</svg>
