<?xml version="1.0" encoding="utf-8"?>
<svg xmlns="http://www.w3.org/2000/svg" xmlns:xlink="http://www.w3.org/1999/xlink" width="600" height="400" viewBox="0 0 2400 1600">
<defs>
  <clipPath id="clip6300">
    <rect x="0" y="0" width="2400" height="1600"/>
  </clipPath>
</defs>
<path clip-path="url(#clip6300)" d="
M0 1600 L2400 1600 L2400 0 L0 0  Z
  " fill="#ffffff" fill-rule="evenodd" fill-opacity="1"/>
<defs>
  <clipPath id="clip6301">
    <rect x="480" y="0" width="1681" height="1600"/>
  </clipPath>
</defs>
<path clip-path="url(#clip6300)" d="
M242.516 1425.62 L2352.76 1425.62 L2352.76 47.2441 L242.516 47.2441  Z
  " fill="#ffffff" fill-rule="evenodd" fill-opacity="1"/>
<defs>
  <clipPath id="clip6302">
    <rect x="242" y="47" width="2111" height="1379"/>
  </clipPath>
</defs>
<polyline clip-path="url(#clip6302)" style="stroke:#000000; stroke-width:2; stroke-opacity:0.1; fill:none" points="
  273.215,1425.62 273.215,47.2441 
  "/>
<polyline clip-path="url(#clip6302)" style="stroke:#000000; stroke-width:2; stroke-opacity:0.1; fill:none" points="
  700.057,1425.62 700.057,47.2441 
  "/>
<polyline clip-path="url(#clip6302)" style="stroke:#000000; stroke-width:2; stroke-opacity:0.1; fill:none" points="
  1126.9,1425.62 1126.9,47.2441 
  "/>
<polyline clip-path="url(#clip6302)" style="stroke:#000000; stroke-width:2; stroke-opacity:0.1; fill:none" points="
  1553.74,1425.62 1553.74,47.2441 
  "/>
<polyline clip-path="url(#clip6302)" style="stroke:#000000; stroke-width:2; stroke-opacity:0.1; fill:none" points="
  1980.58,1425.62 1980.58,47.2441 
  "/>
<polyline clip-path="url(#clip6302)" style="stroke:#000000; stroke-width:2; stroke-opacity:0.1; fill:none" points="
  242.516,1386.61 2352.76,1386.61 
  "/>
<polyline clip-path="url(#clip6302)" style="stroke:#000000; stroke-width:2; stroke-opacity:0.1; fill:none" points="
  242.516,1109.94 2352.76,1109.94 
  "/>
<polyline clip-path="url(#clip6302)" style="stroke:#000000; stroke-width:2; stroke-opacity:0.1; fill:none" points="
  242.516,833.266 2352.76,833.266 
  "/>
<polyline clip-path="url(#clip6302)" style="stroke:#000000; stroke-width:2; stroke-opacity:0.1; fill:none" points="
  242.516,556.595 2352.76,556.595 
  "/>
<polyline clip-path="url(#clip6302)" style="stroke:#000000; stroke-width:2; stroke-opacity:0.1; fill:none" points="
  242.516,279.924 2352.76,279.924 
  "/>
<polyline clip-path="url(#clip6300)" style="stroke:#000000; stroke-width:4; stroke-opacity:1; fill:none" points="
  242.516,1425.62 2352.76,1425.62 
  "/>
<polyline clip-path="url(#clip6300)" style="stroke:#000000; stroke-width:4; stroke-opacity:1; fill:none" points="
  242.516,1425.62 242.516,47.2441 
  "/>
<polyline clip-path="url(#clip6300)" style="stroke:#000000; stroke-width:4; stroke-opacity:1; fill:none" points="
  273.215,1425.62 273.215,1404.94 
  "/>
<polyline clip-path="url(#clip6300)" style="stroke:#000000; stroke-width:4; stroke-opacity:1; fill:none" points="
  700.057,1425.62 700.057,1404.94 
  "/>
<polyline clip-path="url(#clip6300)" style="stroke:#000000; stroke-width:4; stroke-opacity:1; fill:none" points="
  1126.9,1425.62 1126.9,1404.94 
  "/>
<polyline clip-path="url(#clip6300)" style="stroke:#000000; stroke-width:4; stroke-opacity:1; fill:none" points="
  1553.74,1425.62 1553.74,1404.94 
  "/>
<polyline clip-path="url(#clip6300)" style="stroke:#000000; stroke-width:4; stroke-opacity:1; fill:none" points="
  1980.58,1425.62 1980.58,1404.94 
  "/>
<polyline clip-path="url(#clip6300)" style="stroke:#000000; stroke-width:4; stroke-opacity:1; fill:none" points="
  242.516,1386.61 274.17,1386.61 
  "/>
<polyline clip-path="url(#clip6300)" style="stroke:#000000; stroke-width:4; stroke-opacity:1; fill:none" points="
  242.516,1109.94 274.17,1109.94 
  "/>
<polyline clip-path="url(#clip6300)" style="stroke:#000000; stroke-width:4; stroke-opacity:1; fill:none" points="
  242.516,833.266 274.17,833.266 
  "/>
<polyline clip-path="url(#clip6300)" style="stroke:#000000; stroke-width:4; stroke-opacity:1; fill:none" points="
  242.516,556.595 274.17,556.595 
  "/>
<polyline clip-path="url(#clip6300)" style="stroke:#000000; stroke-width:4; stroke-opacity:1; fill:none" points="
  242.516,279.924 274.17,279.924 
  "/>
<g clip-path="url(#clip6300)">
<text style="fill:#000000; fill-opacity:1; font-family:Arial,Helvetica Neue,Helvetica,sans-serif; font-size:48px; text-anchor:middle;" transform="rotate(0, 273.215, 1479.62)" x="273.215" y="1479.62">15</text>
</g>
<g clip-path="url(#clip6300)">
<text style="fill:#000000; fill-opacity:1; font-family:Arial,Helvetica Neue,Helvetica,sans-serif; font-size:48px; text-anchor:middle;" transform="rotate(0, 700.057, 1479.62)" x="700.057" y="1479.62">20</text>
</g>
<g clip-path="url(#clip6300)">
<text style="fill:#000000; fill-opacity:1; font-family:Arial,Helvetica Neue,Helvetica,sans-serif; font-size:48px; text-anchor:middle;" transform="rotate(0, 1126.9, 1479.62)" x="1126.9" y="1479.62">25</text>
</g>
<g clip-path="url(#clip6300)">
<text style="fill:#000000; fill-opacity:1; font-family:Arial,Helvetica Neue,Helvetica,sans-serif; font-size:48px; text-anchor:middle;" transform="rotate(0, 1553.74, 1479.62)" x="1553.74" y="1479.62">30</text>
</g>
<g clip-path="url(#clip6300)">
<text style="fill:#000000; fill-opacity:1; font-family:Arial,Helvetica Neue,Helvetica,sans-serif; font-size:48px; text-anchor:middle;" transform="rotate(0, 1980.58, 1479.62)" x="1980.58" y="1479.62">35</text>
</g>
<g clip-path="url(#clip6300)">
<text style="fill:#000000; fill-opacity:1; font-family:Arial,Helvetica Neue,Helvetica,sans-serif; font-size:48px; text-anchor:end;" transform="rotate(0, 218.516, 1404.11)" x="218.516" y="1404.11">0.00</text>
</g>
<g clip-path="url(#clip6300)">
<text style="fill:#000000; fill-opacity:1; font-family:Arial,Helvetica Neue,Helvetica,sans-serif; font-size:48px; text-anchor:end;" transform="rotate(0, 218.516, 1127.44)" x="218.516" y="1127.44">0.05</text>
</g>
<g clip-path="url(#clip6300)">
<text style="fill:#000000; fill-opacity:1; font-family:Arial,Helvetica Neue,Helvetica,sans-serif; font-size:48px; text-anchor:end;" transform="rotate(0, 218.516, 850.766)" x="218.516" y="850.766">0.10</text>
</g>
<g clip-path="url(#clip6300)">
<text style="fill:#000000; fill-opacity:1; font-family:Arial,Helvetica Neue,Helvetica,sans-serif; font-size:48px; text-anchor:end;" transform="rotate(0, 218.516, 574.095)" x="218.516" y="574.095">0.15</text>
</g>
<g clip-path="url(#clip6300)">
<text style="fill:#000000; fill-opacity:1; font-family:Arial,Helvetica Neue,Helvetica,sans-serif; font-size:48px; text-anchor:end;" transform="rotate(0, 218.516, 297.424)" x="218.516" y="297.424">0.20</text>
</g>
<g clip-path="url(#clip6300)">
<text style="fill:#000000; fill-opacity:1; font-family:Arial,Helvetica Neue,Helvetica,sans-serif; font-size:66px; text-anchor:middle;" transform="rotate(0, 1297.64, 1559.48)" x="1297.64" y="1559.48">No. of Support vectors</text>
</g>
<g clip-path="url(#clip6300)">
<text style="fill:#000000; fill-opacity:1; font-family:Arial,Helvetica Neue,Helvetica,sans-serif; font-size:66px; text-anchor:middle;" transform="rotate(-90, 89.2861, 736.431)" x="89.2861" y="736.431">count</text>
</g>
<path clip-path="url(#clip6302)" d="
M358.583 1303.61 L358.583 1386.61 L529.32 1386.61 L529.32 1303.61 L358.583 1303.61 L358.583 1303.61  Z
  " fill="#009af9" fill-rule="evenodd" fill-opacity="1"/>
<polyline clip-path="url(#clip6302)" style="stroke:#000000; stroke-width:4; stroke-opacity:1; fill:none" points="
  358.583,1303.61 358.583,1386.61 529.32,1386.61 529.32,1303.61 358.583,1303.61 
  "/>
<path clip-path="url(#clip6302)" d="
M529.32 667.264 L529.32 1386.61 L700.057 1386.61 L700.057 667.264 L529.32 667.264 L529.32 667.264  Z
  " fill="#009af9" fill-rule="evenodd" fill-opacity="1"/>
<polyline clip-path="url(#clip6302)" style="stroke:#000000; stroke-width:4; stroke-opacity:1; fill:none" points="
  529.32,667.264 529.32,1386.61 700.057,1386.61 700.057,667.264 529.32,667.264 
  "/>
<path clip-path="url(#clip6302)" d="
M700.057 86.2547 L700.057 1386.61 L870.794 1386.61 L870.794 86.2547 L700.057 86.2547 L700.057 86.2547  Z
  " fill="#009af9" fill-rule="evenodd" fill-opacity="1"/>
<polyline clip-path="url(#clip6302)" style="stroke:#000000; stroke-width:4; stroke-opacity:1; fill:none" points="
  700.057,86.2547 700.057,1386.61 870.794,1386.61 870.794,86.2547 700.057,86.2547 
  "/>
<path clip-path="url(#clip6302)" d="
M870.794 1248.27 L870.794 1386.61 L1041.53 1386.61 L1041.53 1248.27 L870.794 1248.27 L870.794 1248.27  Z
  " fill="#009af9" fill-rule="evenodd" fill-opacity="1"/>
<polyline clip-path="url(#clip6302)" style="stroke:#000000; stroke-width:4; stroke-opacity:1; fill:none" points="
  870.794,1248.27 870.794,1386.61 1041.53,1386.61 1041.53,1248.27 870.794,1248.27 
  "/>
<path clip-path="url(#clip6302)" d="
M1041.53 1192.94 L1041.53 1386.61 L1212.27 1386.61 L1212.27 1192.94 L1041.53 1192.94 L1041.53 1192.94  Z
  " fill="#009af9" fill-rule="evenodd" fill-opacity="1"/>
<polyline clip-path="url(#clip6302)" style="stroke:#000000; stroke-width:4; stroke-opacity:1; fill:none" points="
  1041.53,1192.94 1041.53,1386.61 1212.27,1386.61 1212.27,1192.94 1041.53,1192.94 
  "/>
<path clip-path="url(#clip6302)" d="
M1212.27 1220.61 L1212.27 1386.61 L1383 1386.61 L1383 1220.61 L1212.27 1220.61 L1212.27 1220.61  Z
  " fill="#009af9" fill-rule="evenodd" fill-opacity="1"/>
<polyline clip-path="url(#clip6302)" style="stroke:#000000; stroke-width:4; stroke-opacity:1; fill:none" points="
  1212.27,1220.61 1212.27,1386.61 1383,1386.61 1383,1220.61 1212.27,1220.61 
  "/>
<path clip-path="url(#clip6302)" d="
M1383 1331.27 L1383 1386.61 L1553.74 1386.61 L1553.74 1331.27 L1383 1331.27 L1383 1331.27  Z
  " fill="#009af9" fill-rule="evenodd" fill-opacity="1"/>
<polyline clip-path="url(#clip6302)" style="stroke:#000000; stroke-width:4; stroke-opacity:1; fill:none" points="
  1383,1331.27 1383,1386.61 1553.74,1386.61 1553.74,1331.27 1383,1331.27 
  "/>
<path clip-path="url(#clip6302)" d="
M1553.74 1331.27 L1553.74 1386.61 L1724.48 1386.61 L1724.48 1331.27 L1553.74 1331.27 L1553.74 1331.27  Z
  " fill="#009af9" fill-rule="evenodd" fill-opacity="1"/>
<polyline clip-path="url(#clip6302)" style="stroke:#000000; stroke-width:4; stroke-opacity:1; fill:none" points="
  1553.74,1331.27 1553.74,1386.61 1724.48,1386.61 1724.48,1331.27 1553.74,1331.27 
  "/>
<path clip-path="url(#clip6302)" d="
M1724.48 1358.94 L1724.48 1386.61 L1895.22 1386.61 L1895.22 1358.94 L1724.48 1358.94 L1724.48 1358.94  Z
  " fill="#009af9" fill-rule="evenodd" fill-opacity="1"/>
<polyline clip-path="url(#clip6302)" style="stroke:#000000; stroke-width:4; stroke-opacity:1; fill:none" points="
  1724.48,1358.94 1724.48,1386.61 1895.22,1386.61 1895.22,1358.94 1724.48,1358.94 
  "/>
<path clip-path="url(#clip6302)" d="
M1895.22 1386.61 L1895.22 1386.61 L2065.95 1386.61 L2065.95 1386.61 L1895.22 1386.61 L1895.22 1386.61  Z
  " fill="#009af9" fill-rule="evenodd" fill-opacity="1"/>
<polyline clip-path="url(#clip6302)" style="stroke:#000000; stroke-width:4; stroke-opacity:1; fill:none" points="
  1895.22,1386.61 1895.22,1386.61 2065.95,1386.61 1895.22,1386.61 
  "/>
<path clip-path="url(#clip6302)" d="
M2065.95 1358.94 L2065.95 1386.61 L2236.69 1386.61 L2236.69 1358.94 L2065.95 1358.94 L2065.95 1358.94  Z
  " fill="#009af9" fill-rule="evenodd" fill-opacity="1"/>
<polyline clip-path="url(#clip6302)" style="stroke:#000000; stroke-width:4; stroke-opacity:1; fill:none" points="
  2065.95,1358.94 2065.95,1386.61 2236.69,1386.61 2236.69,1358.94 2065.95,1358.94 
  "/>
</svg>
