<?xml version="1.0" encoding="utf-8"?>
<svg xmlns="http://www.w3.org/2000/svg" xmlns:xlink="http://www.w3.org/1999/xlink" width="600" height="400" viewBox="0 0 2400 1600">
<defs>
  <clipPath id="clip2700">
    <rect x="0" y="0" width="2400" height="1600"/>
  </clipPath>
</defs>
<path clip-path="url(#clip2700)" d="
M0 1600 L2400 1600 L2400 0 L0 0  Z
  " fill="#ffffff" fill-rule="evenodd" fill-opacity="1"/>
<defs>
  <clipPath id="clip2701">
    <rect x="480" y="0" width="1681" height="1600"/>
  </clipPath>
</defs>
<path clip-path="url(#clip2700)" d="
M242.516 1425.62 L2352.76 1425.62 L2352.76 47.2441 L242.516 47.2441  Z
  " fill="#ffffff" fill-rule="evenodd" fill-opacity="1"/>
<defs>
  <clipPath id="clip2702">
    <rect x="242" y="47" width="2111" height="1379"/>
  </clipPath>
</defs>
<polyline clip-path="url(#clip2702)" style="stroke:#000000; stroke-width:2; stroke-opacity:0.1; fill:none" points="
  358.583,1425.62 358.583,47.2441 
  "/>
<polyline clip-path="url(#clip2702)" style="stroke:#000000; stroke-width:2; stroke-opacity:0.1; fill:none" points="
  775.94,1425.62 775.94,47.2441 
  "/>
<polyline clip-path="url(#clip2702)" style="stroke:#000000; stroke-width:2; stroke-opacity:0.1; fill:none" points="
  1193.3,1425.62 1193.3,47.2441 
  "/>
<polyline clip-path="url(#clip2702)" style="stroke:#000000; stroke-width:2; stroke-opacity:0.1; fill:none" points="
  1610.65,1425.62 1610.65,47.2441 
  "/>
<polyline clip-path="url(#clip2702)" style="stroke:#000000; stroke-width:2; stroke-opacity:0.1; fill:none" points="
  2028.01,1425.62 2028.01,47.2441 
  "/>
<polyline clip-path="url(#clip2702)" style="stroke:#000000; stroke-width:2; stroke-opacity:0.1; fill:none" points="
  242.516,1386.61 2352.76,1386.61 
  "/>
<polyline clip-path="url(#clip2702)" style="stroke:#000000; stroke-width:2; stroke-opacity:0.1; fill:none" points="
  242.516,1169.88 2352.76,1169.88 
  "/>
<polyline clip-path="url(#clip2702)" style="stroke:#000000; stroke-width:2; stroke-opacity:0.1; fill:none" points="
  242.516,953.157 2352.76,953.157 
  "/>
<polyline clip-path="url(#clip2702)" style="stroke:#000000; stroke-width:2; stroke-opacity:0.1; fill:none" points="
  242.516,736.431 2352.76,736.431 
  "/>
<polyline clip-path="url(#clip2702)" style="stroke:#000000; stroke-width:2; stroke-opacity:0.1; fill:none" points="
  242.516,519.706 2352.76,519.706 
  "/>
<polyline clip-path="url(#clip2702)" style="stroke:#000000; stroke-width:2; stroke-opacity:0.1; fill:none" points="
  242.516,302.98 2352.76,302.98 
  "/>
<polyline clip-path="url(#clip2702)" style="stroke:#000000; stroke-width:2; stroke-opacity:0.1; fill:none" points="
  242.516,86.2547 2352.76,86.2547 
  "/>
<polyline clip-path="url(#clip2700)" style="stroke:#000000; stroke-width:4; stroke-opacity:1; fill:none" points="
  242.516,1425.62 2352.76,1425.62 
  "/>
<polyline clip-path="url(#clip2700)" style="stroke:#000000; stroke-width:4; stroke-opacity:1; fill:none" points="
  242.516,1425.62 242.516,47.2441 
  "/>
<polyline clip-path="url(#clip2700)" style="stroke:#000000; stroke-width:4; stroke-opacity:1; fill:none" points="
  358.583,1425.62 358.583,1404.94 
  "/>
<polyline clip-path="url(#clip2700)" style="stroke:#000000; stroke-width:4; stroke-opacity:1; fill:none" points="
  775.94,1425.62 775.94,1404.94 
  "/>
<polyline clip-path="url(#clip2700)" style="stroke:#000000; stroke-width:4; stroke-opacity:1; fill:none" points="
  1193.3,1425.62 1193.3,1404.94 
  "/>
<polyline clip-path="url(#clip2700)" style="stroke:#000000; stroke-width:4; stroke-opacity:1; fill:none" points="
  1610.65,1425.62 1610.65,1404.94 
  "/>
<polyline clip-path="url(#clip2700)" style="stroke:#000000; stroke-width:4; stroke-opacity:1; fill:none" points="
  2028.01,1425.62 2028.01,1404.94 
  "/>
<polyline clip-path="url(#clip2700)" style="stroke:#000000; stroke-width:4; stroke-opacity:1; fill:none" points="
  242.516,1386.61 274.17,1386.61 
  "/>
<polyline clip-path="url(#clip2700)" style="stroke:#000000; stroke-width:4; stroke-opacity:1; fill:none" points="
  242.516,1169.88 274.17,1169.88 
  "/>
<polyline clip-path="url(#clip2700)" style="stroke:#000000; stroke-width:4; stroke-opacity:1; fill:none" points="
  242.516,953.157 274.17,953.157 
  "/>
<polyline clip-path="url(#clip2700)" style="stroke:#000000; stroke-width:4; stroke-opacity:1; fill:none" points="
  242.516,736.431 274.17,736.431 
  "/>
<polyline clip-path="url(#clip2700)" style="stroke:#000000; stroke-width:4; stroke-opacity:1; fill:none" points="
  242.516,519.706 274.17,519.706 
  "/>
<polyline clip-path="url(#clip2700)" style="stroke:#000000; stroke-width:4; stroke-opacity:1; fill:none" points="
  242.516,302.98 274.17,302.98 
  "/>
<polyline clip-path="url(#clip2700)" style="stroke:#000000; stroke-width:4; stroke-opacity:1; fill:none" points="
  242.516,86.2547 274.17,86.2547 
  "/>
<g clip-path="url(#clip2700)">
<text style="fill:#000000; fill-opacity:1; font-family:Arial,Helvetica Neue,Helvetica,sans-serif; font-size:48px; text-anchor:middle;" transform="rotate(0, 358.583, 1479.62)" x="358.583" y="1479.62">50</text>
</g>
<g clip-path="url(#clip2700)">
<text style="fill:#000000; fill-opacity:1; font-family:Arial,Helvetica Neue,Helvetica,sans-serif; font-size:48px; text-anchor:middle;" transform="rotate(0, 775.94, 1479.62)" x="775.94" y="1479.62">60</text>
</g>
<g clip-path="url(#clip2700)">
<text style="fill:#000000; fill-opacity:1; font-family:Arial,Helvetica Neue,Helvetica,sans-serif; font-size:48px; text-anchor:middle;" transform="rotate(0, 1193.3, 1479.62)" x="1193.3" y="1479.62">70</text>
</g>
<g clip-path="url(#clip2700)">
<text style="fill:#000000; fill-opacity:1; font-family:Arial,Helvetica Neue,Helvetica,sans-serif; font-size:48px; text-anchor:middle;" transform="rotate(0, 1610.65, 1479.62)" x="1610.65" y="1479.62">80</text>
</g>
<g clip-path="url(#clip2700)">
<text style="fill:#000000; fill-opacity:1; font-family:Arial,Helvetica Neue,Helvetica,sans-serif; font-size:48px; text-anchor:middle;" transform="rotate(0, 2028.01, 1479.62)" x="2028.01" y="1479.62">90</text>
</g>
<g clip-path="url(#clip2700)">
<text style="fill:#000000; fill-opacity:1; font-family:Arial,Helvetica Neue,Helvetica,sans-serif; font-size:48px; text-anchor:end;" transform="rotate(0, 218.516, 1404.11)" x="218.516" y="1404.11">0.00</text>
</g>
<g clip-path="url(#clip2700)">
<text style="fill:#000000; fill-opacity:1; font-family:Arial,Helvetica Neue,Helvetica,sans-serif; font-size:48px; text-anchor:end;" transform="rotate(0, 218.516, 1187.38)" x="218.516" y="1187.38">0.01</text>
</g>
<g clip-path="url(#clip2700)">
<text style="fill:#000000; fill-opacity:1; font-family:Arial,Helvetica Neue,Helvetica,sans-serif; font-size:48px; text-anchor:end;" transform="rotate(0, 218.516, 970.657)" x="218.516" y="970.657">0.02</text>
</g>
<g clip-path="url(#clip2700)">
<text style="fill:#000000; fill-opacity:1; font-family:Arial,Helvetica Neue,Helvetica,sans-serif; font-size:48px; text-anchor:end;" transform="rotate(0, 218.516, 753.931)" x="218.516" y="753.931">0.03</text>
</g>
<g clip-path="url(#clip2700)">
<text style="fill:#000000; fill-opacity:1; font-family:Arial,Helvetica Neue,Helvetica,sans-serif; font-size:48px; text-anchor:end;" transform="rotate(0, 218.516, 537.206)" x="218.516" y="537.206">0.04</text>
</g>
<g clip-path="url(#clip2700)">
<text style="fill:#000000; fill-opacity:1; font-family:Arial,Helvetica Neue,Helvetica,sans-serif; font-size:48px; text-anchor:end;" transform="rotate(0, 218.516, 320.48)" x="218.516" y="320.48">0.05</text>
</g>
<g clip-path="url(#clip2700)">
<text style="fill:#000000; fill-opacity:1; font-family:Arial,Helvetica Neue,Helvetica,sans-serif; font-size:48px; text-anchor:end;" transform="rotate(0, 218.516, 103.755)" x="218.516" y="103.755">0.06</text>
</g>
<g clip-path="url(#clip2700)">
<text style="fill:#000000; fill-opacity:1; font-family:Arial,Helvetica Neue,Helvetica,sans-serif; font-size:66px; text-anchor:middle;" transform="rotate(0, 1297.64, 1559.48)" x="1297.64" y="1559.48">No. of Support vectors</text>
</g>
<g clip-path="url(#clip2700)">
<text style="fill:#000000; fill-opacity:1; font-family:Arial,Helvetica Neue,Helvetica,sans-serif; font-size:66px; text-anchor:middle;" transform="rotate(-90, 89.2861, 736.431)" x="89.2861" y="736.431">count</text>
</g>
<path clip-path="url(#clip2702)" d="
M358.583 1299.92 L358.583 1386.61 L567.262 1386.61 L567.262 1299.92 L358.583 1299.92 L358.583 1299.92  Z
  " fill="#009af9" fill-rule="evenodd" fill-opacity="1"/>
<polyline clip-path="url(#clip2702)" style="stroke:#000000; stroke-width:4; stroke-opacity:1; fill:none" points="
  358.583,1299.92 358.583,1386.61 567.262,1386.61 567.262,1299.92 358.583,1299.92 
  "/>
<path clip-path="url(#clip2702)" d="
M567.262 1386.61 L567.262 1386.61 L775.94 1386.61 L775.94 1386.61 L567.262 1386.61 L567.262 1386.61  Z
  " fill="#009af9" fill-rule="evenodd" fill-opacity="1"/>
<polyline clip-path="url(#clip2702)" style="stroke:#000000; stroke-width:4; stroke-opacity:1; fill:none" points="
  567.262,1386.61 567.262,1386.61 775.94,1386.61 567.262,1386.61 
  "/>
<path clip-path="url(#clip2702)" d="
M775.94 1126.54 L775.94 1386.61 L984.619 1386.61 L984.619 1126.54 L775.94 1126.54 L775.94 1126.54  Z
  " fill="#009af9" fill-rule="evenodd" fill-opacity="1"/>
<polyline clip-path="url(#clip2702)" style="stroke:#000000; stroke-width:4; stroke-opacity:1; fill:none" points="
  775.94,1126.54 775.94,1386.61 984.619,1386.61 984.619,1126.54 775.94,1126.54 
  "/>
<path clip-path="url(#clip2702)" d="
M984.619 389.67 L984.619 1386.61 L1193.3 1386.61 L1193.3 389.67 L984.619 389.67 L984.619 389.67  Z
  " fill="#009af9" fill-rule="evenodd" fill-opacity="1"/>
<polyline clip-path="url(#clip2702)" style="stroke:#000000; stroke-width:4; stroke-opacity:1; fill:none" points="
  984.619,389.67 984.619,1386.61 1193.3,1386.61 1193.3,389.67 984.619,389.67 
  "/>
<path clip-path="url(#clip2702)" d="
M1193.3 563.051 L1193.3 1386.61 L1401.98 1386.61 L1401.98 563.051 L1193.3 563.051 L1193.3 563.051  Z
  " fill="#009af9" fill-rule="evenodd" fill-opacity="1"/>
<polyline clip-path="url(#clip2702)" style="stroke:#000000; stroke-width:4; stroke-opacity:1; fill:none" points="
  1193.3,563.051 1193.3,1386.61 1401.98,1386.61 1401.98,563.051 1193.3,563.051 
  "/>
<path clip-path="url(#clip2702)" d="
M1401.98 86.2547 L1401.98 1386.61 L1610.65 1386.61 L1610.65 86.2547 L1401.98 86.2547 L1401.98 86.2547  Z
  " fill="#009af9" fill-rule="evenodd" fill-opacity="1"/>
<polyline clip-path="url(#clip2702)" style="stroke:#000000; stroke-width:4; stroke-opacity:1; fill:none" points="
  1401.98,86.2547 1401.98,1386.61 1610.65,1386.61 1610.65,86.2547 1401.98,86.2547 
  "/>
<path clip-path="url(#clip2702)" d="
M1610.65 563.051 L1610.65 1386.61 L1819.33 1386.61 L1819.33 563.051 L1610.65 563.051 L1610.65 563.051  Z
  " fill="#009af9" fill-rule="evenodd" fill-opacity="1"/>
<polyline clip-path="url(#clip2702)" style="stroke:#000000; stroke-width:4; stroke-opacity:1; fill:none" points="
  1610.65,563.051 1610.65,1386.61 1819.33,1386.61 1819.33,563.051 1610.65,563.051 
  "/>
<path clip-path="url(#clip2702)" d="
M1819.33 1386.61 L1819.33 1386.61 L2028.01 1386.61 L2028.01 1386.61 L1819.33 1386.61 L1819.33 1386.61  Z
  " fill="#009af9" fill-rule="evenodd" fill-opacity="1"/>
<polyline clip-path="url(#clip2702)" style="stroke:#000000; stroke-width:4; stroke-opacity:1; fill:none" points="
  1819.33,1386.61 1819.33,1386.61 2028.01,1386.61 1819.33,1386.61 
  "/>
<path clip-path="url(#clip2702)" d="
M2028.01 1343.26 L2028.01 1386.61 L2236.69 1386.61 L2236.69 1343.26 L2028.01 1343.26 L2028.01 1343.26  Z
  " fill="#009af9" fill-rule="evenodd" fill-opacity="1"/>
<polyline clip-path="url(#clip2702)" style="stroke:#000000; stroke-width:4; stroke-opacity:1; fill:none" points="
  2028.01,1343.26 2028.01,1386.61 2236.69,1386.61 2236.69,1343.26 2028.01,1343.26 
  "/>
<path clip-path="url(#clip2700)" d="
M1939.1 251.724 L2280.76 251.724 L2280.76 130.764 L1939.1 130.764  Z
  " fill="#ffffff" fill-rule="evenodd" fill-opacity="1"/>
<polyline clip-path="url(#clip2700)" style="stroke:#000000; stroke-width:4; stroke-opacity:1; fill:none" points="
  1939.1,251.724 2280.76,251.724 2280.76,130.764 1939.1,130.764 1939.1,251.724 
  "/>
<path clip-path="url(#clip2700)" d="
M1963.1 215.436 L2107.1 215.436 L2107.1 167.052 L1963.1 167.052 L1963.1 215.436  Z
  " fill="#009af9" fill-rule="evenodd" fill-opacity="1"/>
<polyline clip-path="url(#clip2700)" style="stroke:#000000; stroke-width:4; stroke-opacity:1; fill:none" points="
  1963.1,215.436 2107.1,215.436 2107.1,167.052 1963.1,167.052 1963.1,215.436 
  "/>
<g clip-path="url(#clip2700)">
<text style="fill:#000000; fill-opacity:1; font-family:Arial,Helvetica Neue,Helvetica,sans-serif; font-size:48px; text-anchor:start;" transform="rotate(0, 2131.1, 208.744)" x="2131.1" y="208.744">false</text>
</g>
</svg>
