<?xml version="1.0" encoding="utf-8"?>
<svg xmlns="http://www.w3.org/2000/svg" xmlns:xlink="http://www.w3.org/1999/xlink" width="600" height="400" viewBox="0 0 2400 1600">
<defs>
  <clipPath id="clip3100">
    <rect x="0" y="0" width="2400" height="1600"/>
  </clipPath>
</defs>
<path clip-path="url(#clip3100)" d="
M0 1600 L2400 1600 L2400 0 L0 0  Z
  " fill="#ffffff" fill-rule="evenodd" fill-opacity="1"/>
<defs>
  <clipPath id="clip3101">
    <rect x="480" y="0" width="1681" height="1600"/>
  </clipPath>
</defs>
<path clip-path="url(#clip3100)" d="
M242.516 1425.62 L2352.76 1425.62 L2352.76 47.2441 L242.516 47.2441  Z
  " fill="#ffffff" fill-rule="evenodd" fill-opacity="1"/>
<defs>
  <clipPath id="clip3102">
    <rect x="242" y="47" width="2111" height="1379"/>
  </clipPath>
</defs>
<polyline clip-path="url(#clip3102)" style="stroke:#000000; stroke-width:2; stroke-opacity:0.1; fill:none" points="
  358.583,1425.62 358.583,47.2441 
  "/>
<polyline clip-path="url(#clip3102)" style="stroke:#000000; stroke-width:2; stroke-opacity:0.1; fill:none" points="
  775.94,1425.62 775.94,47.2441 
  "/>
<polyline clip-path="url(#clip3102)" style="stroke:#000000; stroke-width:2; stroke-opacity:0.1; fill:none" points="
  1193.3,1425.62 1193.3,47.2441 
  "/>
<polyline clip-path="url(#clip3102)" style="stroke:#000000; stroke-width:2; stroke-opacity:0.1; fill:none" points="
  1610.65,1425.62 1610.65,47.2441 
  "/>
<polyline clip-path="url(#clip3102)" style="stroke:#000000; stroke-width:2; stroke-opacity:0.1; fill:none" points="
  2028.01,1425.62 2028.01,47.2441 
  "/>
<polyline clip-path="url(#clip3102)" style="stroke:#000000; stroke-width:2; stroke-opacity:0.1; fill:none" points="
  242.516,1386.61 2352.76,1386.61 
  "/>
<polyline clip-path="url(#clip3102)" style="stroke:#000000; stroke-width:2; stroke-opacity:0.1; fill:none" points="
  242.516,1162.41 2352.76,1162.41 
  "/>
<polyline clip-path="url(#clip3102)" style="stroke:#000000; stroke-width:2; stroke-opacity:0.1; fill:none" points="
  242.516,938.21 2352.76,938.21 
  "/>
<polyline clip-path="url(#clip3102)" style="stroke:#000000; stroke-width:2; stroke-opacity:0.1; fill:none" points="
  242.516,714.011 2352.76,714.011 
  "/>
<polyline clip-path="url(#clip3102)" style="stroke:#000000; stroke-width:2; stroke-opacity:0.1; fill:none" points="
  242.516,489.813 2352.76,489.813 
  "/>
<polyline clip-path="url(#clip3102)" style="stroke:#000000; stroke-width:2; stroke-opacity:0.1; fill:none" points="
  242.516,265.614 2352.76,265.614 
  "/>
<polyline clip-path="url(#clip3100)" style="stroke:#000000; stroke-width:4; stroke-opacity:1; fill:none" points="
  242.516,1425.62 2352.76,1425.62 
  "/>
<polyline clip-path="url(#clip3100)" style="stroke:#000000; stroke-width:4; stroke-opacity:1; fill:none" points="
  242.516,1425.62 242.516,47.2441 
  "/>
<polyline clip-path="url(#clip3100)" style="stroke:#000000; stroke-width:4; stroke-opacity:1; fill:none" points="
  358.583,1425.62 358.583,1404.94 
  "/>
<polyline clip-path="url(#clip3100)" style="stroke:#000000; stroke-width:4; stroke-opacity:1; fill:none" points="
  775.94,1425.62 775.94,1404.94 
  "/>
<polyline clip-path="url(#clip3100)" style="stroke:#000000; stroke-width:4; stroke-opacity:1; fill:none" points="
  1193.3,1425.62 1193.3,1404.94 
  "/>
<polyline clip-path="url(#clip3100)" style="stroke:#000000; stroke-width:4; stroke-opacity:1; fill:none" points="
  1610.65,1425.62 1610.65,1404.94 
  "/>
<polyline clip-path="url(#clip3100)" style="stroke:#000000; stroke-width:4; stroke-opacity:1; fill:none" points="
  2028.01,1425.62 2028.01,1404.94 
  "/>
<polyline clip-path="url(#clip3100)" style="stroke:#000000; stroke-width:4; stroke-opacity:1; fill:none" points="
  242.516,1386.61 274.17,1386.61 
  "/>
<polyline clip-path="url(#clip3100)" style="stroke:#000000; stroke-width:4; stroke-opacity:1; fill:none" points="
  242.516,1162.41 274.17,1162.41 
  "/>
<polyline clip-path="url(#clip3100)" style="stroke:#000000; stroke-width:4; stroke-opacity:1; fill:none" points="
  242.516,938.21 274.17,938.21 
  "/>
<polyline clip-path="url(#clip3100)" style="stroke:#000000; stroke-width:4; stroke-opacity:1; fill:none" points="
  242.516,714.011 274.17,714.011 
  "/>
<polyline clip-path="url(#clip3100)" style="stroke:#000000; stroke-width:4; stroke-opacity:1; fill:none" points="
  242.516,489.813 274.17,489.813 
  "/>
<polyline clip-path="url(#clip3100)" style="stroke:#000000; stroke-width:4; stroke-opacity:1; fill:none" points="
  242.516,265.614 274.17,265.614 
  "/>
<g clip-path="url(#clip3100)">
<text style="fill:#000000; fill-opacity:1; font-family:Arial,Helvetica Neue,Helvetica,sans-serif; font-size:48px; text-anchor:middle;" transform="rotate(0, 358.583, 1479.62)" x="358.583" y="1479.62">40</text>
</g>
<g clip-path="url(#clip3100)">
<text style="fill:#000000; fill-opacity:1; font-family:Arial,Helvetica Neue,Helvetica,sans-serif; font-size:48px; text-anchor:middle;" transform="rotate(0, 775.94, 1479.62)" x="775.94" y="1479.62">50</text>
</g>
<g clip-path="url(#clip3100)">
<text style="fill:#000000; fill-opacity:1; font-family:Arial,Helvetica Neue,Helvetica,sans-serif; font-size:48px; text-anchor:middle;" transform="rotate(0, 1193.3, 1479.62)" x="1193.3" y="1479.62">60</text>
</g>
<g clip-path="url(#clip3100)">
<text style="fill:#000000; fill-opacity:1; font-family:Arial,Helvetica Neue,Helvetica,sans-serif; font-size:48px; text-anchor:middle;" transform="rotate(0, 1610.65, 1479.62)" x="1610.65" y="1479.62">70</text>
</g>
<g clip-path="url(#clip3100)">
<text style="fill:#000000; fill-opacity:1; font-family:Arial,Helvetica Neue,Helvetica,sans-serif; font-size:48px; text-anchor:middle;" transform="rotate(0, 2028.01, 1479.62)" x="2028.01" y="1479.62">80</text>
</g>
<g clip-path="url(#clip3100)">
<text style="fill:#000000; fill-opacity:1; font-family:Arial,Helvetica Neue,Helvetica,sans-serif; font-size:48px; text-anchor:end;" transform="rotate(0, 218.516, 1404.11)" x="218.516" y="1404.11">0.00</text>
</g>
<g clip-path="url(#clip3100)">
<text style="fill:#000000; fill-opacity:1; font-family:Arial,Helvetica Neue,Helvetica,sans-serif; font-size:48px; text-anchor:end;" transform="rotate(0, 218.516, 1179.91)" x="218.516" y="1179.91">0.01</text>
</g>
<g clip-path="url(#clip3100)">
<text style="fill:#000000; fill-opacity:1; font-family:Arial,Helvetica Neue,Helvetica,sans-serif; font-size:48px; text-anchor:end;" transform="rotate(0, 218.516, 955.71)" x="218.516" y="955.71">0.02</text>
</g>
<g clip-path="url(#clip3100)">
<text style="fill:#000000; fill-opacity:1; font-family:Arial,Helvetica Neue,Helvetica,sans-serif; font-size:48px; text-anchor:end;" transform="rotate(0, 218.516, 731.511)" x="218.516" y="731.511">0.03</text>
</g>
<g clip-path="url(#clip3100)">
<text style="fill:#000000; fill-opacity:1; font-family:Arial,Helvetica Neue,Helvetica,sans-serif; font-size:48px; text-anchor:end;" transform="rotate(0, 218.516, 507.313)" x="218.516" y="507.313">0.04</text>
</g>
<g clip-path="url(#clip3100)">
<text style="fill:#000000; fill-opacity:1; font-family:Arial,Helvetica Neue,Helvetica,sans-serif; font-size:48px; text-anchor:end;" transform="rotate(0, 218.516, 283.114)" x="218.516" y="283.114">0.05</text>
</g>
<g clip-path="url(#clip3100)">
<text style="fill:#000000; fill-opacity:1; font-family:Arial,Helvetica Neue,Helvetica,sans-serif; font-size:66px; text-anchor:middle;" transform="rotate(0, 1297.64, 1559.48)" x="1297.64" y="1559.48">No. of Support vectors</text>
</g>
<g clip-path="url(#clip3100)">
<text style="fill:#000000; fill-opacity:1; font-family:Arial,Helvetica Neue,Helvetica,sans-serif; font-size:66px; text-anchor:middle;" transform="rotate(-90, 89.2861, 736.431)" x="89.2861" y="736.431">count</text>
</g>
<path clip-path="url(#clip3102)" d="
M358.583 1341.77 L358.583 1386.61 L567.262 1386.61 L567.262 1341.77 L358.583 1341.77 L358.583 1341.77  Z
  " fill="#009af9" fill-rule="evenodd" fill-opacity="1"/>
<polyline clip-path="url(#clip3102)" style="stroke:#000000; stroke-width:4; stroke-opacity:1; fill:none" points="
  358.583,1341.77 358.583,1386.61 567.262,1386.61 567.262,1341.77 358.583,1341.77 
  "/>
<path clip-path="url(#clip3102)" d="
M567.262 1296.93 L567.262 1386.61 L775.94 1386.61 L775.94 1296.93 L567.262 1296.93 L567.262 1296.93  Z
  " fill="#009af9" fill-rule="evenodd" fill-opacity="1"/>
<polyline clip-path="url(#clip3102)" style="stroke:#000000; stroke-width:4; stroke-opacity:1; fill:none" points="
  567.262,1296.93 567.262,1386.61 775.94,1386.61 775.94,1296.93 567.262,1296.93 
  "/>
<path clip-path="url(#clip3102)" d="
M775.94 1072.73 L775.94 1386.61 L984.619 1386.61 L984.619 1072.73 L775.94 1072.73 L775.94 1072.73  Z
  " fill="#009af9" fill-rule="evenodd" fill-opacity="1"/>
<polyline clip-path="url(#clip3102)" style="stroke:#000000; stroke-width:4; stroke-opacity:1; fill:none" points="
  775.94,1072.73 775.94,1386.61 984.619,1386.61 984.619,1072.73 775.94,1072.73 
  "/>
<path clip-path="url(#clip3102)" d="
M984.619 489.813 L984.619 1386.61 L1193.3 1386.61 L1193.3 489.813 L984.619 489.813 L984.619 489.813  Z
  " fill="#009af9" fill-rule="evenodd" fill-opacity="1"/>
<polyline clip-path="url(#clip3102)" style="stroke:#000000; stroke-width:4; stroke-opacity:1; fill:none" points="
  984.619,489.813 984.619,1386.61 1193.3,1386.61 1193.3,489.813 984.619,489.813 
  "/>
<path clip-path="url(#clip3102)" d="
M1193.3 86.2547 L1193.3 1386.61 L1401.98 1386.61 L1401.98 86.2547 L1193.3 86.2547 L1193.3 86.2547  Z
  " fill="#009af9" fill-rule="evenodd" fill-opacity="1"/>
<polyline clip-path="url(#clip3102)" style="stroke:#000000; stroke-width:4; stroke-opacity:1; fill:none" points="
  1193.3,86.2547 1193.3,1386.61 1401.98,1386.61 1401.98,86.2547 1193.3,86.2547 
  "/>
<path clip-path="url(#clip3102)" d="
M1401.98 624.332 L1401.98 1386.61 L1610.65 1386.61 L1610.65 624.332 L1401.98 624.332 L1401.98 624.332  Z
  " fill="#009af9" fill-rule="evenodd" fill-opacity="1"/>
<polyline clip-path="url(#clip3102)" style="stroke:#000000; stroke-width:4; stroke-opacity:1; fill:none" points="
  1401.98,624.332 1401.98,1386.61 1610.65,1386.61 1610.65,624.332 1401.98,624.332 
  "/>
<path clip-path="url(#clip3102)" d="
M1610.65 758.851 L1610.65 1386.61 L1819.33 1386.61 L1819.33 758.851 L1610.65 758.851 L1610.65 758.851  Z
  " fill="#009af9" fill-rule="evenodd" fill-opacity="1"/>
<polyline clip-path="url(#clip3102)" style="stroke:#000000; stroke-width:4; stroke-opacity:1; fill:none" points="
  1610.65,758.851 1610.65,1386.61 1819.33,1386.61 1819.33,758.851 1610.65,758.851 
  "/>
<path clip-path="url(#clip3102)" d="
M1819.33 983.05 L1819.33 1386.61 L2028.01 1386.61 L2028.01 983.05 L1819.33 983.05 L1819.33 983.05  Z
  " fill="#009af9" fill-rule="evenodd" fill-opacity="1"/>
<polyline clip-path="url(#clip3102)" style="stroke:#000000; stroke-width:4; stroke-opacity:1; fill:none" points="
  1819.33,983.05 1819.33,1386.61 2028.01,1386.61 2028.01,983.05 1819.33,983.05 
  "/>
<path clip-path="url(#clip3102)" d="
M2028.01 1341.77 L2028.01 1386.61 L2236.69 1386.61 L2236.69 1341.77 L2028.01 1341.77 L2028.01 1341.77  Z
  " fill="#009af9" fill-rule="evenodd" fill-opacity="1"/>
<polyline clip-path="url(#clip3102)" style="stroke:#000000; stroke-width:4; stroke-opacity:1; fill:none" points="
  2028.01,1341.77 2028.01,1386.61 2236.69,1386.61 2236.69,1341.77 2028.01,1341.77 
  "/>
</svg>
