<?xml version="1.0" encoding="utf-8"?>
<svg xmlns="http://www.w3.org/2000/svg" xmlns:xlink="http://www.w3.org/1999/xlink" width="600" height="400" viewBox="0 0 2400 1600">
<defs>
  <clipPath id="clip9100">
    <rect x="0" y="0" width="2400" height="1600"/>
  </clipPath>
</defs>
<path clip-path="url(#clip9100)" d="
M0 1600 L2400 1600 L2400 0 L0 0  Z
  " fill="#ffffff" fill-rule="evenodd" fill-opacity="1"/>
<defs>
  <clipPath id="clip9101">
    <rect x="480" y="0" width="1681" height="1600"/>
  </clipPath>
</defs>
<path clip-path="url(#clip9100)" d="
M242.516 1425.62 L2352.76 1425.62 L2352.76 47.2441 L242.516 47.2441  Z
  " fill="#ffffff" fill-rule="evenodd" fill-opacity="1"/>
<defs>
  <clipPath id="clip9102">
    <rect x="242" y="47" width="2111" height="1379"/>
  </clipPath>
</defs>
<polyline clip-path="url(#clip9102)" style="stroke:#000000; stroke-width:2; stroke-opacity:0.1; fill:none" points="
  358.583,1425.62 358.583,47.2441 
  "/>
<polyline clip-path="url(#clip9102)" style="stroke:#000000; stroke-width:2; stroke-opacity:0.1; fill:none" points="
  775.94,1425.62 775.94,47.2441 
  "/>
<polyline clip-path="url(#clip9102)" style="stroke:#000000; stroke-width:2; stroke-opacity:0.1; fill:none" points="
  1193.3,1425.62 1193.3,47.2441 
  "/>
<polyline clip-path="url(#clip9102)" style="stroke:#000000; stroke-width:2; stroke-opacity:0.1; fill:none" points="
  1610.65,1425.62 1610.65,47.2441 
  "/>
<polyline clip-path="url(#clip9102)" style="stroke:#000000; stroke-width:2; stroke-opacity:0.1; fill:none" points="
  2028.01,1425.62 2028.01,47.2441 
  "/>
<polyline clip-path="url(#clip9102)" style="stroke:#000000; stroke-width:2; stroke-opacity:0.1; fill:none" points="
  242.516,1386.61 2352.76,1386.61 
  "/>
<polyline clip-path="url(#clip9102)" style="stroke:#000000; stroke-width:2; stroke-opacity:0.1; fill:none" points="
  242.516,1103.92 2352.76,1103.92 
  "/>
<polyline clip-path="url(#clip9102)" style="stroke:#000000; stroke-width:2; stroke-opacity:0.1; fill:none" points="
  242.516,821.237 2352.76,821.237 
  "/>
<polyline clip-path="url(#clip9102)" style="stroke:#000000; stroke-width:2; stroke-opacity:0.1; fill:none" points="
  242.516,538.552 2352.76,538.552 
  "/>
<polyline clip-path="url(#clip9102)" style="stroke:#000000; stroke-width:2; stroke-opacity:0.1; fill:none" points="
  242.516,255.866 2352.76,255.866 
  "/>
<polyline clip-path="url(#clip9100)" style="stroke:#000000; stroke-width:4; stroke-opacity:1; fill:none" points="
  242.516,1425.62 2352.76,1425.62 
  "/>
<polyline clip-path="url(#clip9100)" style="stroke:#000000; stroke-width:4; stroke-opacity:1; fill:none" points="
  242.516,1425.62 242.516,47.2441 
  "/>
<polyline clip-path="url(#clip9100)" style="stroke:#000000; stroke-width:4; stroke-opacity:1; fill:none" points="
  358.583,1425.62 358.583,1404.94 
  "/>
<polyline clip-path="url(#clip9100)" style="stroke:#000000; stroke-width:4; stroke-opacity:1; fill:none" points="
  775.94,1425.62 775.94,1404.94 
  "/>
<polyline clip-path="url(#clip9100)" style="stroke:#000000; stroke-width:4; stroke-opacity:1; fill:none" points="
  1193.3,1425.62 1193.3,1404.94 
  "/>
<polyline clip-path="url(#clip9100)" style="stroke:#000000; stroke-width:4; stroke-opacity:1; fill:none" points="
  1610.65,1425.62 1610.65,1404.94 
  "/>
<polyline clip-path="url(#clip9100)" style="stroke:#000000; stroke-width:4; stroke-opacity:1; fill:none" points="
  2028.01,1425.62 2028.01,1404.94 
  "/>
<polyline clip-path="url(#clip9100)" style="stroke:#000000; stroke-width:4; stroke-opacity:1; fill:none" points="
  242.516,1386.61 274.17,1386.61 
  "/>
<polyline clip-path="url(#clip9100)" style="stroke:#000000; stroke-width:4; stroke-opacity:1; fill:none" points="
  242.516,1103.92 274.17,1103.92 
  "/>
<polyline clip-path="url(#clip9100)" style="stroke:#000000; stroke-width:4; stroke-opacity:1; fill:none" points="
  242.516,821.237 274.17,821.237 
  "/>
<polyline clip-path="url(#clip9100)" style="stroke:#000000; stroke-width:4; stroke-opacity:1; fill:none" points="
  242.516,538.552 274.17,538.552 
  "/>
<polyline clip-path="url(#clip9100)" style="stroke:#000000; stroke-width:4; stroke-opacity:1; fill:none" points="
  242.516,255.866 274.17,255.866 
  "/>
<g clip-path="url(#clip9100)">
<text style="fill:#000000; fill-opacity:1; font-family:Arial,Helvetica Neue,Helvetica,sans-serif; font-size:48px; text-anchor:middle;" transform="rotate(0, 358.583, 1479.62)" x="358.583" y="1479.62">12</text>
</g>
<g clip-path="url(#clip9100)">
<text style="fill:#000000; fill-opacity:1; font-family:Arial,Helvetica Neue,Helvetica,sans-serif; font-size:48px; text-anchor:middle;" transform="rotate(0, 775.94, 1479.62)" x="775.94" y="1479.62">14</text>
</g>
<g clip-path="url(#clip9100)">
<text style="fill:#000000; fill-opacity:1; font-family:Arial,Helvetica Neue,Helvetica,sans-serif; font-size:48px; text-anchor:middle;" transform="rotate(0, 1193.3, 1479.62)" x="1193.3" y="1479.62">16</text>
</g>
<g clip-path="url(#clip9100)">
<text style="fill:#000000; fill-opacity:1; font-family:Arial,Helvetica Neue,Helvetica,sans-serif; font-size:48px; text-anchor:middle;" transform="rotate(0, 1610.65, 1479.62)" x="1610.65" y="1479.62">18</text>
</g>
<g clip-path="url(#clip9100)">
<text style="fill:#000000; fill-opacity:1; font-family:Arial,Helvetica Neue,Helvetica,sans-serif; font-size:48px; text-anchor:middle;" transform="rotate(0, 2028.01, 1479.62)" x="2028.01" y="1479.62">20</text>
</g>
<g clip-path="url(#clip9100)">
<text style="fill:#000000; fill-opacity:1; font-family:Arial,Helvetica Neue,Helvetica,sans-serif; font-size:48px; text-anchor:end;" transform="rotate(0, 218.516, 1404.11)" x="218.516" y="1404.11">0.00</text>
</g>
<g clip-path="url(#clip9100)">
<text style="fill:#000000; fill-opacity:1; font-family:Arial,Helvetica Neue,Helvetica,sans-serif; font-size:48px; text-anchor:end;" transform="rotate(0, 218.516, 1121.42)" x="218.516" y="1121.42">0.05</text>
</g>
<g clip-path="url(#clip9100)">
<text style="fill:#000000; fill-opacity:1; font-family:Arial,Helvetica Neue,Helvetica,sans-serif; font-size:48px; text-anchor:end;" transform="rotate(0, 218.516, 838.737)" x="218.516" y="838.737">0.10</text>
</g>
<g clip-path="url(#clip9100)">
<text style="fill:#000000; fill-opacity:1; font-family:Arial,Helvetica Neue,Helvetica,sans-serif; font-size:48px; text-anchor:end;" transform="rotate(0, 218.516, 556.052)" x="218.516" y="556.052">0.15</text>
</g>
<g clip-path="url(#clip9100)">
<text style="fill:#000000; fill-opacity:1; font-family:Arial,Helvetica Neue,Helvetica,sans-serif; font-size:48px; text-anchor:end;" transform="rotate(0, 218.516, 273.366)" x="218.516" y="273.366">0.20</text>
</g>
<g clip-path="url(#clip9100)">
<text style="fill:#000000; fill-opacity:1; font-family:Arial,Helvetica Neue,Helvetica,sans-serif; font-size:66px; text-anchor:middle;" transform="rotate(0, 1297.64, 1559.48)" x="1297.64" y="1559.48">No. of Support vectors</text>
</g>
<g clip-path="url(#clip9100)">
<text style="fill:#000000; fill-opacity:1; font-family:Arial,Helvetica Neue,Helvetica,sans-serif; font-size:66px; text-anchor:middle;" transform="rotate(-90, 89.2861, 736.431)" x="89.2861" y="736.431">count</text>
</g>
<path clip-path="url(#clip9102)" d="
M358.583 1273.53 L358.583 1386.61 L567.262 1386.61 L567.262 1273.53 L358.583 1273.53 L358.583 1273.53  Z
  " fill="#009af9" fill-rule="evenodd" fill-opacity="1"/>
<polyline clip-path="url(#clip9102)" style="stroke:#000000; stroke-width:4; stroke-opacity:1; fill:none" points="
  358.583,1273.53 358.583,1386.61 567.262,1386.61 567.262,1273.53 358.583,1273.53 
  "/>
<path clip-path="url(#clip9102)" d="
M567.262 1217 L567.262 1386.61 L775.94 1386.61 L775.94 1217 L567.262 1217 L567.262 1217  Z
  " fill="#009af9" fill-rule="evenodd" fill-opacity="1"/>
<polyline clip-path="url(#clip9102)" style="stroke:#000000; stroke-width:4; stroke-opacity:1; fill:none" points="
  567.262,1217 567.262,1386.61 775.94,1386.61 775.94,1217 567.262,1217 
  "/>
<path clip-path="url(#clip9102)" d="
M775.94 934.311 L775.94 1386.61 L984.619 1386.61 L984.619 934.311 L775.94 934.311 L775.94 934.311  Z
  " fill="#009af9" fill-rule="evenodd" fill-opacity="1"/>
<polyline clip-path="url(#clip9102)" style="stroke:#000000; stroke-width:4; stroke-opacity:1; fill:none" points="
  775.94,934.311 775.94,1386.61 984.619,1386.61 984.619,934.311 775.94,934.311 
  "/>
<path clip-path="url(#clip9102)" d="
M984.619 142.792 L984.619 1386.61 L1193.3 1386.61 L1193.3 142.792 L984.619 142.792 L984.619 142.792  Z
  " fill="#009af9" fill-rule="evenodd" fill-opacity="1"/>
<polyline clip-path="url(#clip9102)" style="stroke:#000000; stroke-width:4; stroke-opacity:1; fill:none" points="
  984.619,142.792 984.619,1386.61 1193.3,1386.61 1193.3,142.792 984.619,142.792 
  "/>
<path clip-path="url(#clip9102)" d="
M1193.3 255.866 L1193.3 1386.61 L1401.98 1386.61 L1401.98 255.866 L1193.3 255.866 L1193.3 255.866  Z
  " fill="#009af9" fill-rule="evenodd" fill-opacity="1"/>
<polyline clip-path="url(#clip9102)" style="stroke:#000000; stroke-width:4; stroke-opacity:1; fill:none" points="
  1193.3,255.866 1193.3,1386.61 1401.98,1386.61 1401.98,255.866 1193.3,255.866 
  "/>
<path clip-path="url(#clip9102)" d="
M1401.98 86.2547 L1401.98 1386.61 L1610.65 1386.61 L1610.65 86.2547 L1401.98 86.2547 L1401.98 86.2547  Z
  " fill="#009af9" fill-rule="evenodd" fill-opacity="1"/>
<polyline clip-path="url(#clip9102)" style="stroke:#000000; stroke-width:4; stroke-opacity:1; fill:none" points="
  1401.98,86.2547 1401.98,1386.61 1610.65,1386.61 1610.65,86.2547 1401.98,86.2547 
  "/>
<path clip-path="url(#clip9102)" d="
M1610.65 538.552 L1610.65 1386.61 L1819.33 1386.61 L1819.33 538.552 L1610.65 538.552 L1610.65 538.552  Z
  " fill="#009af9" fill-rule="evenodd" fill-opacity="1"/>
<polyline clip-path="url(#clip9102)" style="stroke:#000000; stroke-width:4; stroke-opacity:1; fill:none" points="
  1610.65,538.552 1610.65,1386.61 1819.33,1386.61 1819.33,538.552 1610.65,538.552 
  "/>
<path clip-path="url(#clip9102)" d="
M1819.33 1103.92 L1819.33 1386.61 L2028.01 1386.61 L2028.01 1103.92 L1819.33 1103.92 L1819.33 1103.92  Z
  " fill="#009af9" fill-rule="evenodd" fill-opacity="1"/>
<polyline clip-path="url(#clip9102)" style="stroke:#000000; stroke-width:4; stroke-opacity:1; fill:none" points="
  1819.33,1103.92 1819.33,1386.61 2028.01,1386.61 2028.01,1103.92 1819.33,1103.92 
  "/>
<path clip-path="url(#clip9102)" d="
M2028.01 1273.53 L2028.01 1386.61 L2236.69 1386.61 L2236.69 1273.53 L2028.01 1273.53 L2028.01 1273.53  Z
  " fill="#009af9" fill-rule="evenodd" fill-opacity="1"/>
<polyline clip-path="url(#clip9102)" style="stroke:#000000; stroke-width:4; stroke-opacity:1; fill:none" points="
  2028.01,1273.53 2028.01,1386.61 2236.69,1386.61 2236.69,1273.53 2028.01,1273.53 
  "/>
<path clip-path="url(#clip9100)" d="
M1957.82 251.724 L2280.76 251.724 L2280.76 130.764 L1957.82 130.764  Z
  " fill="#ffffff" fill-rule="evenodd" fill-opacity="1"/>
<polyline clip-path="url(#clip9100)" style="stroke:#000000; stroke-width:4; stroke-opacity:1; fill:none" points="
  1957.82,251.724 2280.76,251.724 2280.76,130.764 1957.82,130.764 1957.82,251.724 
  "/>
<path clip-path="url(#clip9100)" d="
M1981.82 215.436 L2125.82 215.436 L2125.82 167.052 L1981.82 167.052 L1981.82 215.436  Z
  " fill="#009af9" fill-rule="evenodd" fill-opacity="1"/>
<polyline clip-path="url(#clip9100)" style="stroke:#000000; stroke-width:4; stroke-opacity:1; fill:none" points="
  1981.82,215.436 2125.82,215.436 2125.82,167.052 1981.82,167.052 1981.82,215.436 
  "/>
<g clip-path="url(#clip9100)">
<text style="fill:#000000; fill-opacity:1; font-family:Arial,Helvetica Neue,Helvetica,sans-serif; font-size:48px; text-anchor:start;" transform="rotate(0, 2149.82, 208.744)" x="2149.82" y="208.744">true</text>
</g>
</svg>
