<?xml version="1.0" encoding="utf-8"?>
<svg xmlns="http://www.w3.org/2000/svg" xmlns:xlink="http://www.w3.org/1999/xlink" width="600" height="400" viewBox="0 0 2400 1600">
<defs>
  <clipPath id="clip5100">
    <rect x="0" y="0" width="2400" height="1600"/>
  </clipPath>
</defs>
<path clip-path="url(#clip5100)" d="
M0 1600 L2400 1600 L2400 0 L0 0  Z
  " fill="#ffffff" fill-rule="evenodd" fill-opacity="1"/>
<defs>
  <clipPath id="clip5101">
    <rect x="480" y="0" width="1681" height="1600"/>
  </clipPath>
</defs>
<path clip-path="url(#clip5100)" d="
M242.516 1425.62 L2352.76 1425.62 L2352.76 47.2441 L242.516 47.2441  Z
  " fill="#ffffff" fill-rule="evenodd" fill-opacity="1"/>
<defs>
  <clipPath id="clip5102">
    <rect x="242" y="47" width="2111" height="1379"/>
  </clipPath>
</defs>
<polyline clip-path="url(#clip5102)" style="stroke:#000000; stroke-width:2; stroke-opacity:0.1; fill:none" points="
  358.583,1425.62 358.583,47.2441 
  "/>
<polyline clip-path="url(#clip5102)" style="stroke:#000000; stroke-width:2; stroke-opacity:0.1; fill:none" points="
  895.185,1425.62 895.185,47.2441 
  "/>
<polyline clip-path="url(#clip5102)" style="stroke:#000000; stroke-width:2; stroke-opacity:0.1; fill:none" points="
  1431.79,1425.62 1431.79,47.2441 
  "/>
<polyline clip-path="url(#clip5102)" style="stroke:#000000; stroke-width:2; stroke-opacity:0.1; fill:none" points="
  1968.39,1425.62 1968.39,47.2441 
  "/>
<polyline clip-path="url(#clip5102)" style="stroke:#000000; stroke-width:2; stroke-opacity:0.1; fill:none" points="
  242.516,1386.61 2352.76,1386.61 
  "/>
<polyline clip-path="url(#clip5102)" style="stroke:#000000; stroke-width:2; stroke-opacity:0.1; fill:none" points="
  242.516,1061.52 2352.76,1061.52 
  "/>
<polyline clip-path="url(#clip5102)" style="stroke:#000000; stroke-width:2; stroke-opacity:0.1; fill:none" points="
  242.516,736.431 2352.76,736.431 
  "/>
<polyline clip-path="url(#clip5102)" style="stroke:#000000; stroke-width:2; stroke-opacity:0.1; fill:none" points="
  242.516,411.343 2352.76,411.343 
  "/>
<polyline clip-path="url(#clip5102)" style="stroke:#000000; stroke-width:2; stroke-opacity:0.1; fill:none" points="
  242.516,86.2547 2352.76,86.2547 
  "/>
<polyline clip-path="url(#clip5100)" style="stroke:#000000; stroke-width:4; stroke-opacity:1; fill:none" points="
  242.516,1425.62 2352.76,1425.62 
  "/>
<polyline clip-path="url(#clip5100)" style="stroke:#000000; stroke-width:4; stroke-opacity:1; fill:none" points="
  242.516,1425.62 242.516,47.2441 
  "/>
<polyline clip-path="url(#clip5100)" style="stroke:#000000; stroke-width:4; stroke-opacity:1; fill:none" points="
  358.583,1425.62 358.583,1404.94 
  "/>
<polyline clip-path="url(#clip5100)" style="stroke:#000000; stroke-width:4; stroke-opacity:1; fill:none" points="
  895.185,1425.62 895.185,1404.94 
  "/>
<polyline clip-path="url(#clip5100)" style="stroke:#000000; stroke-width:4; stroke-opacity:1; fill:none" points="
  1431.79,1425.62 1431.79,1404.94 
  "/>
<polyline clip-path="url(#clip5100)" style="stroke:#000000; stroke-width:4; stroke-opacity:1; fill:none" points="
  1968.39,1425.62 1968.39,1404.94 
  "/>
<polyline clip-path="url(#clip5100)" style="stroke:#000000; stroke-width:4; stroke-opacity:1; fill:none" points="
  242.516,1386.61 274.17,1386.61 
  "/>
<polyline clip-path="url(#clip5100)" style="stroke:#000000; stroke-width:4; stroke-opacity:1; fill:none" points="
  242.516,1061.52 274.17,1061.52 
  "/>
<polyline clip-path="url(#clip5100)" style="stroke:#000000; stroke-width:4; stroke-opacity:1; fill:none" points="
  242.516,736.431 274.17,736.431 
  "/>
<polyline clip-path="url(#clip5100)" style="stroke:#000000; stroke-width:4; stroke-opacity:1; fill:none" points="
  242.516,411.343 274.17,411.343 
  "/>
<polyline clip-path="url(#clip5100)" style="stroke:#000000; stroke-width:4; stroke-opacity:1; fill:none" points="
  242.516,86.2547 274.17,86.2547 
  "/>
<g clip-path="url(#clip5100)">
<text style="fill:#000000; fill-opacity:1; font-family:Arial,Helvetica Neue,Helvetica,sans-serif; font-size:48px; text-anchor:middle;" transform="rotate(0, 358.583, 1479.62)" x="358.583" y="1479.62">20</text>
</g>
<g clip-path="url(#clip5100)">
<text style="fill:#000000; fill-opacity:1; font-family:Arial,Helvetica Neue,Helvetica,sans-serif; font-size:48px; text-anchor:middle;" transform="rotate(0, 895.185, 1479.62)" x="895.185" y="1479.62">30</text>
</g>
<g clip-path="url(#clip5100)">
<text style="fill:#000000; fill-opacity:1; font-family:Arial,Helvetica Neue,Helvetica,sans-serif; font-size:48px; text-anchor:middle;" transform="rotate(0, 1431.79, 1479.62)" x="1431.79" y="1479.62">40</text>
</g>
<g clip-path="url(#clip5100)">
<text style="fill:#000000; fill-opacity:1; font-family:Arial,Helvetica Neue,Helvetica,sans-serif; font-size:48px; text-anchor:middle;" transform="rotate(0, 1968.39, 1479.62)" x="1968.39" y="1479.62">50</text>
</g>
<g clip-path="url(#clip5100)">
<text style="fill:#000000; fill-opacity:1; font-family:Arial,Helvetica Neue,Helvetica,sans-serif; font-size:48px; text-anchor:end;" transform="rotate(0, 218.516, 1404.11)" x="218.516" y="1404.11">0.00</text>
</g>
<g clip-path="url(#clip5100)">
<text style="fill:#000000; fill-opacity:1; font-family:Arial,Helvetica Neue,Helvetica,sans-serif; font-size:48px; text-anchor:end;" transform="rotate(0, 218.516, 1079.02)" x="218.516" y="1079.02">0.25</text>
</g>
<g clip-path="url(#clip5100)">
<text style="fill:#000000; fill-opacity:1; font-family:Arial,Helvetica Neue,Helvetica,sans-serif; font-size:48px; text-anchor:end;" transform="rotate(0, 218.516, 753.931)" x="218.516" y="753.931">0.50</text>
</g>
<g clip-path="url(#clip5100)">
<text style="fill:#000000; fill-opacity:1; font-family:Arial,Helvetica Neue,Helvetica,sans-serif; font-size:48px; text-anchor:end;" transform="rotate(0, 218.516, 428.843)" x="218.516" y="428.843">0.75</text>
</g>
<g clip-path="url(#clip5100)">
<text style="fill:#000000; fill-opacity:1; font-family:Arial,Helvetica Neue,Helvetica,sans-serif; font-size:48px; text-anchor:end;" transform="rotate(0, 218.516, 103.755)" x="218.516" y="103.755">1.00</text>
</g>
<g clip-path="url(#clip5100)">
<text style="fill:#000000; fill-opacity:1; font-family:Arial,Helvetica Neue,Helvetica,sans-serif; font-size:66px; text-anchor:middle;" transform="rotate(0, 1297.64, 1559.48)" x="1297.64" y="1559.48">No. of Support vectors</text>
</g>
<g clip-path="url(#clip5100)">
<text style="fill:#000000; fill-opacity:1; font-family:Arial,Helvetica Neue,Helvetica,sans-serif; font-size:66px; text-anchor:middle;" transform="rotate(-90, 89.2861, 736.431)" x="89.2861" y="736.431">count</text>
</g>
<path clip-path="url(#clip5102)" d="
M358.583 1383.95 L358.583 1386.61 L626.884 1386.61 L626.884 1383.95 L358.583 1383.95 L358.583 1383.95  Z
  " fill="#009af9" fill-rule="evenodd" fill-opacity="1"/>
<polyline clip-path="url(#clip5102)" style="stroke:#000000; stroke-width:4; stroke-opacity:1; fill:none" points="
  358.583,1383.95 358.583,1386.61 626.884,1386.61 626.884,1383.95 358.583,1383.95 
  "/>
<path clip-path="url(#clip5102)" d="
M626.884 1344.15 L626.884 1386.61 L895.185 1386.61 L895.185 1344.15 L626.884 1344.15 L626.884 1344.15  Z
  " fill="#009af9" fill-rule="evenodd" fill-opacity="1"/>
<polyline clip-path="url(#clip5102)" style="stroke:#000000; stroke-width:4; stroke-opacity:1; fill:none" points="
  626.884,1344.15 626.884,1386.61 895.185,1386.61 895.185,1344.15 626.884,1344.15 
  "/>
<path clip-path="url(#clip5102)" d="
M895.185 1344.15 L895.185 1386.61 L1163.49 1386.61 L1163.49 1344.15 L895.185 1344.15 L895.185 1344.15  Z
  " fill="#009af9" fill-rule="evenodd" fill-opacity="1"/>
<polyline clip-path="url(#clip5102)" style="stroke:#000000; stroke-width:4; stroke-opacity:1; fill:none" points="
  895.185,1344.15 895.185,1386.61 1163.49,1386.61 1163.49,1344.15 895.185,1344.15 
  "/>
<path clip-path="url(#clip5102)" d="
M1163.49 1336.19 L1163.49 1386.61 L1431.79 1386.61 L1431.79 1336.19 L1163.49 1336.19 L1163.49 1336.19  Z
  " fill="#009af9" fill-rule="evenodd" fill-opacity="1"/>
<polyline clip-path="url(#clip5102)" style="stroke:#000000; stroke-width:4; stroke-opacity:1; fill:none" points="
  1163.49,1336.19 1163.49,1386.61 1431.79,1386.61 1431.79,1336.19 1163.49,1336.19 
  "/>
<path clip-path="url(#clip5102)" d="
M1431.79 1338.84 L1431.79 1386.61 L1700.09 1386.61 L1700.09 1338.84 L1431.79 1338.84 L1431.79 1338.84  Z
  " fill="#009af9" fill-rule="evenodd" fill-opacity="1"/>
<polyline clip-path="url(#clip5102)" style="stroke:#000000; stroke-width:4; stroke-opacity:1; fill:none" points="
  1431.79,1338.84 1431.79,1386.61 1700.09,1386.61 1700.09,1338.84 1431.79,1338.84 
  "/>
<path clip-path="url(#clip5102)" d="
M1700.09 1336.19 L1700.09 1386.61 L1968.39 1386.61 L1968.39 1336.19 L1700.09 1336.19 L1700.09 1336.19  Z
  " fill="#009af9" fill-rule="evenodd" fill-opacity="1"/>
<polyline clip-path="url(#clip5102)" style="stroke:#000000; stroke-width:4; stroke-opacity:1; fill:none" points="
  1700.09,1336.19 1700.09,1386.61 1968.39,1386.61 1968.39,1336.19 1700.09,1336.19 
  "/>
<path clip-path="url(#clip5102)" d="
M1968.39 1362.72 L1968.39 1386.61 L2236.69 1386.61 L2236.69 1362.72 L1968.39 1362.72 L1968.39 1362.72  Z
  " fill="#009af9" fill-rule="evenodd" fill-opacity="1"/>
<polyline clip-path="url(#clip5102)" style="stroke:#000000; stroke-width:4; stroke-opacity:1; fill:none" points="
  1968.39,1362.72 1968.39,1386.61 2236.69,1386.61 2236.69,1362.72 1968.39,1362.72 
  "/>
<path clip-path="url(#clip5102)" d="
M412.244 86.2547 L412.244 1386.61 L465.904 1386.61 L465.904 86.2547 L412.244 86.2547 L412.244 86.2547  Z
  " fill="#e26f46" fill-rule="evenodd" fill-opacity="1"/>
<polyline clip-path="url(#clip5102)" style="stroke:#000000; stroke-width:4; stroke-opacity:1; fill:none" points="
  412.244,86.2547 412.244,1386.61 465.904,1386.61 465.904,86.2547 412.244,86.2547 
  "/>
<path clip-path="url(#clip5100)" d="
M1939.1 312.204 L2280.76 312.204 L2280.76 130.764 L1939.1 130.764  Z
  " fill="#ffffff" fill-rule="evenodd" fill-opacity="1"/>
<polyline clip-path="url(#clip5100)" style="stroke:#000000; stroke-width:4; stroke-opacity:1; fill:none" points="
  1939.1,312.204 2280.76,312.204 2280.76,130.764 1939.1,130.764 1939.1,312.204 
  "/>
<path clip-path="url(#clip5100)" d="
M1963.1 215.436 L2107.1 215.436 L2107.1 167.052 L1963.1 167.052 L1963.1 215.436  Z
  " fill="#009af9" fill-rule="evenodd" fill-opacity="1"/>
<polyline clip-path="url(#clip5100)" style="stroke:#000000; stroke-width:4; stroke-opacity:1; fill:none" points="
  1963.1,215.436 2107.1,215.436 2107.1,167.052 1963.1,167.052 1963.1,215.436 
  "/>
<g clip-path="url(#clip5100)">
<text style="fill:#000000; fill-opacity:1; font-family:Arial,Helvetica Neue,Helvetica,sans-serif; font-size:48px; text-anchor:start;" transform="rotate(0, 2131.1, 208.744)" x="2131.1" y="208.744">false</text>
</g>
<path clip-path="url(#clip5100)" d="
M1963.1 275.916 L2107.1 275.916 L2107.1 227.532 L1963.1 227.532 L1963.1 275.916  Z
  " fill="#e26f46" fill-rule="evenodd" fill-opacity="1"/>
<polyline clip-path="url(#clip5100)" style="stroke:#000000; stroke-width:4; stroke-opacity:1; fill:none" points="
  1963.1,275.916 2107.1,275.916 2107.1,227.532 1963.1,227.532 1963.1,275.916 
  "/>
<g clip-path="url(#clip5100)">
<text style="fill:#000000; fill-opacity:1; font-family:Arial,Helvetica Neue,Helvetica,sans-serif; font-size:48px; text-anchor:start;" transform="rotate(0, 2131.1, 269.224)" x="2131.1" y="269.224">true</text>
</g>
</svg>
