<?xml version="1.0" encoding="utf-8"?>
<svg xmlns="http://www.w3.org/2000/svg" xmlns:xlink="http://www.w3.org/1999/xlink" width="600" height="400" viewBox="0 0 2400 1600">
<defs>
  <clipPath id="clip5500">
    <rect x="0" y="0" width="2400" height="1600"/>
  </clipPath>
</defs>
<path clip-path="url(#clip5500)" d="
M0 1600 L2400 1600 L2400 0 L0 0  Z
  " fill="#ffffff" fill-rule="evenodd" fill-opacity="1"/>
<defs>
  <clipPath id="clip5501">
    <rect x="480" y="0" width="1681" height="1600"/>
  </clipPath>
</defs>
<path clip-path="url(#clip5500)" d="
M242.516 1425.62 L2352.76 1425.62 L2352.76 47.2441 L242.516 47.2441  Z
  " fill="#ffffff" fill-rule="evenodd" fill-opacity="1"/>
<defs>
  <clipPath id="clip5502">
    <rect x="242" y="47" width="2111" height="1379"/>
  </clipPath>
</defs>
<polyline clip-path="url(#clip5502)" style="stroke:#000000; stroke-width:2; stroke-opacity:0.1; fill:none" points="
  626.884,1425.62 626.884,47.2441 
  "/>
<polyline clip-path="url(#clip5502)" style="stroke:#000000; stroke-width:2; stroke-opacity:0.1; fill:none" points="
  1163.49,1425.62 1163.49,47.2441 
  "/>
<polyline clip-path="url(#clip5502)" style="stroke:#000000; stroke-width:2; stroke-opacity:0.1; fill:none" points="
  1700.09,1425.62 1700.09,47.2441 
  "/>
<polyline clip-path="url(#clip5502)" style="stroke:#000000; stroke-width:2; stroke-opacity:0.1; fill:none" points="
  2236.69,1425.62 2236.69,47.2441 
  "/>
<polyline clip-path="url(#clip5502)" style="stroke:#000000; stroke-width:2; stroke-opacity:0.1; fill:none" points="
  242.516,1386.61 2352.76,1386.61 
  "/>
<polyline clip-path="url(#clip5502)" style="stroke:#000000; stroke-width:2; stroke-opacity:0.1; fill:none" points="
  242.516,1035.16 2352.76,1035.16 
  "/>
<polyline clip-path="url(#clip5502)" style="stroke:#000000; stroke-width:2; stroke-opacity:0.1; fill:none" points="
  242.516,683.714 2352.76,683.714 
  "/>
<polyline clip-path="url(#clip5502)" style="stroke:#000000; stroke-width:2; stroke-opacity:0.1; fill:none" points="
  242.516,332.267 2352.76,332.267 
  "/>
<polyline clip-path="url(#clip5500)" style="stroke:#000000; stroke-width:4; stroke-opacity:1; fill:none" points="
  242.516,1425.62 2352.76,1425.62 
  "/>
<polyline clip-path="url(#clip5500)" style="stroke:#000000; stroke-width:4; stroke-opacity:1; fill:none" points="
  242.516,1425.62 242.516,47.2441 
  "/>
<polyline clip-path="url(#clip5500)" style="stroke:#000000; stroke-width:4; stroke-opacity:1; fill:none" points="
  626.884,1425.62 626.884,1404.94 
  "/>
<polyline clip-path="url(#clip5500)" style="stroke:#000000; stroke-width:4; stroke-opacity:1; fill:none" points="
  1163.49,1425.62 1163.49,1404.94 
  "/>
<polyline clip-path="url(#clip5500)" style="stroke:#000000; stroke-width:4; stroke-opacity:1; fill:none" points="
  1700.09,1425.62 1700.09,1404.94 
  "/>
<polyline clip-path="url(#clip5500)" style="stroke:#000000; stroke-width:4; stroke-opacity:1; fill:none" points="
  2236.69,1425.62 2236.69,1404.94 
  "/>
<polyline clip-path="url(#clip5500)" style="stroke:#000000; stroke-width:4; stroke-opacity:1; fill:none" points="
  242.516,1386.61 274.17,1386.61 
  "/>
<polyline clip-path="url(#clip5500)" style="stroke:#000000; stroke-width:4; stroke-opacity:1; fill:none" points="
  242.516,1035.16 274.17,1035.16 
  "/>
<polyline clip-path="url(#clip5500)" style="stroke:#000000; stroke-width:4; stroke-opacity:1; fill:none" points="
  242.516,683.714 274.17,683.714 
  "/>
<polyline clip-path="url(#clip5500)" style="stroke:#000000; stroke-width:4; stroke-opacity:1; fill:none" points="
  242.516,332.267 274.17,332.267 
  "/>
<g clip-path="url(#clip5500)">
<text style="fill:#000000; fill-opacity:1; font-family:Arial,Helvetica Neue,Helvetica,sans-serif; font-size:48px; text-anchor:middle;" transform="rotate(0, 626.884, 1479.62)" x="626.884" y="1479.62">20</text>
</g>
<g clip-path="url(#clip5500)">
<text style="fill:#000000; fill-opacity:1; font-family:Arial,Helvetica Neue,Helvetica,sans-serif; font-size:48px; text-anchor:middle;" transform="rotate(0, 1163.49, 1479.62)" x="1163.49" y="1479.62">30</text>
</g>
<g clip-path="url(#clip5500)">
<text style="fill:#000000; fill-opacity:1; font-family:Arial,Helvetica Neue,Helvetica,sans-serif; font-size:48px; text-anchor:middle;" transform="rotate(0, 1700.09, 1479.62)" x="1700.09" y="1479.62">40</text>
</g>
<g clip-path="url(#clip5500)">
<text style="fill:#000000; fill-opacity:1; font-family:Arial,Helvetica Neue,Helvetica,sans-serif; font-size:48px; text-anchor:middle;" transform="rotate(0, 2236.69, 1479.62)" x="2236.69" y="1479.62">50</text>
</g>
<g clip-path="url(#clip5500)">
<text style="fill:#000000; fill-opacity:1; font-family:Arial,Helvetica Neue,Helvetica,sans-serif; font-size:48px; text-anchor:end;" transform="rotate(0, 218.516, 1404.11)" x="218.516" y="1404.11">0.00</text>
</g>
<g clip-path="url(#clip5500)">
<text style="fill:#000000; fill-opacity:1; font-family:Arial,Helvetica Neue,Helvetica,sans-serif; font-size:48px; text-anchor:end;" transform="rotate(0, 218.516, 1052.66)" x="218.516" y="1052.66">0.02</text>
</g>
<g clip-path="url(#clip5500)">
<text style="fill:#000000; fill-opacity:1; font-family:Arial,Helvetica Neue,Helvetica,sans-serif; font-size:48px; text-anchor:end;" transform="rotate(0, 218.516, 701.214)" x="218.516" y="701.214">0.04</text>
</g>
<g clip-path="url(#clip5500)">
<text style="fill:#000000; fill-opacity:1; font-family:Arial,Helvetica Neue,Helvetica,sans-serif; font-size:48px; text-anchor:end;" transform="rotate(0, 218.516, 349.767)" x="218.516" y="349.767">0.06</text>
</g>
<g clip-path="url(#clip5500)">
<text style="fill:#000000; fill-opacity:1; font-family:Arial,Helvetica Neue,Helvetica,sans-serif; font-size:66px; text-anchor:middle;" transform="rotate(0, 1297.64, 1559.48)" x="1297.64" y="1559.48">No. of Support vectors</text>
</g>
<g clip-path="url(#clip5500)">
<text style="fill:#000000; fill-opacity:1; font-family:Arial,Helvetica Neue,Helvetica,sans-serif; font-size:66px; text-anchor:middle;" transform="rotate(-90, 89.2861, 736.431)" x="89.2861" y="736.431">count</text>
</g>
<path clip-path="url(#clip5502)" d="
M358.583 1210.88 L358.583 1386.61 L626.884 1386.61 L626.884 1210.88 L358.583 1210.88 L358.583 1210.88  Z
  " fill="#009af9" fill-rule="evenodd" fill-opacity="1"/>
<polyline clip-path="url(#clip5502)" style="stroke:#000000; stroke-width:4; stroke-opacity:1; fill:none" points="
  358.583,1210.88 358.583,1386.61 626.884,1386.61 626.884,1210.88 358.583,1210.88 
  "/>
<path clip-path="url(#clip5502)" d="
M626.884 86.2547 L626.884 1386.61 L895.185 1386.61 L895.185 86.2547 L626.884 86.2547 L626.884 86.2547  Z
  " fill="#009af9" fill-rule="evenodd" fill-opacity="1"/>
<polyline clip-path="url(#clip5502)" style="stroke:#000000; stroke-width:4; stroke-opacity:1; fill:none" points="
  626.884,86.2547 626.884,1386.61 895.185,1386.61 895.185,86.2547 626.884,86.2547 
  "/>
<path clip-path="url(#clip5502)" d="
M895.185 261.978 L895.185 1386.61 L1163.49 1386.61 L1163.49 261.978 L895.185 261.978 L895.185 261.978  Z
  " fill="#009af9" fill-rule="evenodd" fill-opacity="1"/>
<polyline clip-path="url(#clip5502)" style="stroke:#000000; stroke-width:4; stroke-opacity:1; fill:none" points="
  895.185,261.978 895.185,1386.61 1163.49,1386.61 1163.49,261.978 895.185,261.978 
  "/>
<path clip-path="url(#clip5502)" d="
M1163.49 859.438 L1163.49 1386.61 L1431.79 1386.61 L1431.79 859.438 L1163.49 859.438 L1163.49 859.438  Z
  " fill="#009af9" fill-rule="evenodd" fill-opacity="1"/>
<polyline clip-path="url(#clip5502)" style="stroke:#000000; stroke-width:4; stroke-opacity:1; fill:none" points="
  1163.49,859.438 1163.49,1386.61 1431.79,1386.61 1431.79,859.438 1163.49,859.438 
  "/>
<path clip-path="url(#clip5502)" d="
M1431.79 1035.16 L1431.79 1386.61 L1700.09 1386.61 L1700.09 1035.16 L1431.79 1035.16 L1431.79 1035.16  Z
  " fill="#009af9" fill-rule="evenodd" fill-opacity="1"/>
<polyline clip-path="url(#clip5502)" style="stroke:#000000; stroke-width:4; stroke-opacity:1; fill:none" points="
  1431.79,1035.16 1431.79,1386.61 1700.09,1386.61 1700.09,1035.16 1431.79,1035.16 
  "/>
<path clip-path="url(#clip5502)" d="
M1700.09 1386.61 L1700.09 1386.61 L1968.39 1386.61 L1968.39 1386.61 L1700.09 1386.61 L1700.09 1386.61  Z
  " fill="#009af9" fill-rule="evenodd" fill-opacity="1"/>
<polyline clip-path="url(#clip5502)" style="stroke:#000000; stroke-width:4; stroke-opacity:1; fill:none" points="
  1700.09,1386.61 1700.09,1386.61 1968.39,1386.61 1700.09,1386.61 
  "/>
<path clip-path="url(#clip5502)" d="
M1968.39 1351.46 L1968.39 1386.61 L2236.69 1386.61 L2236.69 1351.46 L1968.39 1351.46 L1968.39 1351.46  Z
  " fill="#009af9" fill-rule="evenodd" fill-opacity="1"/>
<polyline clip-path="url(#clip5502)" style="stroke:#000000; stroke-width:4; stroke-opacity:1; fill:none" points="
  1968.39,1351.46 1968.39,1386.61 2236.69,1386.61 2236.69,1351.46 1968.39,1351.46 
  "/>
</svg>
