<?xml version="1.0" encoding="utf-8"?>
<svg xmlns="http://www.w3.org/2000/svg" xmlns:xlink="http://www.w3.org/1999/xlink" width="600" height="400" viewBox="0 0 2400 1600">
<defs>
  <clipPath id="clip6700">
    <rect x="0" y="0" width="2400" height="1600"/>
  </clipPath>
</defs>
<path clip-path="url(#clip6700)" d="
M0 1600 L2400 1600 L2400 0 L0 0  Z
  " fill="#ffffff" fill-rule="evenodd" fill-opacity="1"/>
<defs>
  <clipPath id="clip6701">
    <rect x="480" y="0" width="1681" height="1600"/>
  </clipPath>
</defs>
<path clip-path="url(#clip6700)" d="
M215.754 1425.62 L2352.76 1425.62 L2352.76 47.2441 L215.754 47.2441  Z
  " fill="#ffffff" fill-rule="evenodd" fill-opacity="1"/>
<defs>
  <clipPath id="clip6702">
    <rect x="215" y="47" width="2138" height="1379"/>
  </clipPath>
</defs>
<polyline clip-path="url(#clip6702)" style="stroke:#000000; stroke-width:2; stroke-opacity:0.1; fill:none" points="
  567.829,1425.62 567.829,47.2441 
  "/>
<polyline clip-path="url(#clip6702)" style="stroke:#000000; stroke-width:2; stroke-opacity:0.1; fill:none" points="
  1032.89,1425.62 1032.89,47.2441 
  "/>
<polyline clip-path="url(#clip6702)" style="stroke:#000000; stroke-width:2; stroke-opacity:0.1; fill:none" points="
  1497.95,1425.62 1497.95,47.2441 
  "/>
<polyline clip-path="url(#clip6702)" style="stroke:#000000; stroke-width:2; stroke-opacity:0.1; fill:none" points="
  1963.01,1425.62 1963.01,47.2441 
  "/>
<polyline clip-path="url(#clip6702)" style="stroke:#000000; stroke-width:2; stroke-opacity:0.1; fill:none" points="
  215.754,1386.61 2352.76,1386.61 
  "/>
<polyline clip-path="url(#clip6702)" style="stroke:#000000; stroke-width:2; stroke-opacity:0.1; fill:none" points="
  215.754,1026.51 2352.76,1026.51 
  "/>
<polyline clip-path="url(#clip6702)" style="stroke:#000000; stroke-width:2; stroke-opacity:0.1; fill:none" points="
  215.754,666.412 2352.76,666.412 
  "/>
<polyline clip-path="url(#clip6702)" style="stroke:#000000; stroke-width:2; stroke-opacity:0.1; fill:none" points="
  215.754,306.314 2352.76,306.314 
  "/>
<polyline clip-path="url(#clip6700)" style="stroke:#000000; stroke-width:4; stroke-opacity:1; fill:none" points="
  215.754,1425.62 2352.76,1425.62 
  "/>
<polyline clip-path="url(#clip6700)" style="stroke:#000000; stroke-width:4; stroke-opacity:1; fill:none" points="
  215.754,1425.62 215.754,47.2441 
  "/>
<polyline clip-path="url(#clip6700)" style="stroke:#000000; stroke-width:4; stroke-opacity:1; fill:none" points="
  567.829,1425.62 567.829,1404.94 
  "/>
<polyline clip-path="url(#clip6700)" style="stroke:#000000; stroke-width:4; stroke-opacity:1; fill:none" points="
  1032.89,1425.62 1032.89,1404.94 
  "/>
<polyline clip-path="url(#clip6700)" style="stroke:#000000; stroke-width:4; stroke-opacity:1; fill:none" points="
  1497.95,1425.62 1497.95,1404.94 
  "/>
<polyline clip-path="url(#clip6700)" style="stroke:#000000; stroke-width:4; stroke-opacity:1; fill:none" points="
  1963.01,1425.62 1963.01,1404.94 
  "/>
<polyline clip-path="url(#clip6700)" style="stroke:#000000; stroke-width:4; stroke-opacity:1; fill:none" points="
  215.754,1386.61 247.809,1386.61 
  "/>
<polyline clip-path="url(#clip6700)" style="stroke:#000000; stroke-width:4; stroke-opacity:1; fill:none" points="
  215.754,1026.51 247.809,1026.51 
  "/>
<polyline clip-path="url(#clip6700)" style="stroke:#000000; stroke-width:4; stroke-opacity:1; fill:none" points="
  215.754,666.412 247.809,666.412 
  "/>
<polyline clip-path="url(#clip6700)" style="stroke:#000000; stroke-width:4; stroke-opacity:1; fill:none" points="
  215.754,306.314 247.809,306.314 
  "/>
<g clip-path="url(#clip6700)">
<text style="fill:#000000; fill-opacity:1; font-family:Arial,Helvetica Neue,Helvetica,sans-serif; font-size:48px; text-anchor:middle;" transform="rotate(0, 567.829, 1479.62)" x="567.829" y="1479.62">20</text>
</g>
<g clip-path="url(#clip6700)">
<text style="fill:#000000; fill-opacity:1; font-family:Arial,Helvetica Neue,Helvetica,sans-serif; font-size:48px; text-anchor:middle;" transform="rotate(0, 1032.89, 1479.62)" x="1032.89" y="1479.62">25</text>
</g>
<g clip-path="url(#clip6700)">
<text style="fill:#000000; fill-opacity:1; font-family:Arial,Helvetica Neue,Helvetica,sans-serif; font-size:48px; text-anchor:middle;" transform="rotate(0, 1497.95, 1479.62)" x="1497.95" y="1479.62">30</text>
</g>
<g clip-path="url(#clip6700)">
<text style="fill:#000000; fill-opacity:1; font-family:Arial,Helvetica Neue,Helvetica,sans-serif; font-size:48px; text-anchor:middle;" transform="rotate(0, 1963.01, 1479.62)" x="1963.01" y="1479.62">35</text>
</g>
<g clip-path="url(#clip6700)">
<text style="fill:#000000; fill-opacity:1; font-family:Arial,Helvetica Neue,Helvetica,sans-serif; font-size:48px; text-anchor:end;" transform="rotate(0, 191.754, 1404.11)" x="191.754" y="1404.11">0.0</text>
</g>
<g clip-path="url(#clip6700)">
<text style="fill:#000000; fill-opacity:1; font-family:Arial,Helvetica Neue,Helvetica,sans-serif; font-size:48px; text-anchor:end;" transform="rotate(0, 191.754, 1044.01)" x="191.754" y="1044.01">0.2</text>
</g>
<g clip-path="url(#clip6700)">
<text style="fill:#000000; fill-opacity:1; font-family:Arial,Helvetica Neue,Helvetica,sans-serif; font-size:48px; text-anchor:end;" transform="rotate(0, 191.754, 683.912)" x="191.754" y="683.912">0.4</text>
</g>
<g clip-path="url(#clip6700)">
<text style="fill:#000000; fill-opacity:1; font-family:Arial,Helvetica Neue,Helvetica,sans-serif; font-size:48px; text-anchor:end;" transform="rotate(0, 191.754, 323.814)" x="191.754" y="323.814">0.6</text>
</g>
<g clip-path="url(#clip6700)">
<text style="fill:#000000; fill-opacity:1; font-family:Arial,Helvetica Neue,Helvetica,sans-serif; font-size:66px; text-anchor:middle;" transform="rotate(0, 1284.25, 1559.48)" x="1284.25" y="1559.48">No. of Support vectors</text>
</g>
<g clip-path="url(#clip6700)">
<text style="fill:#000000; fill-opacity:1; font-family:Arial,Helvetica Neue,Helvetica,sans-serif; font-size:66px; text-anchor:middle;" transform="rotate(-90, 89.2861, 736.431)" x="89.2861" y="736.431">count</text>
</g>
<path clip-path="url(#clip6702)" d="
M567.829 1258 L567.829 1386.61 L753.853 1386.61 L753.853 1258 L567.829 1258 L567.829 1258  Z
  " fill="#009af9" fill-rule="evenodd" fill-opacity="1"/>
<polyline clip-path="url(#clip6702)" style="stroke:#000000; stroke-width:4; stroke-opacity:1; fill:none" points="
  567.829,1258 567.829,1386.61 753.853,1386.61 753.853,1258 567.829,1258 
  "/>
<path clip-path="url(#clip6702)" d="
M753.853 1225.85 L753.853 1386.61 L939.877 1386.61 L939.877 1225.85 L753.853 1225.85 L753.853 1225.85  Z
  " fill="#009af9" fill-rule="evenodd" fill-opacity="1"/>
<polyline clip-path="url(#clip6702)" style="stroke:#000000; stroke-width:4; stroke-opacity:1; fill:none" points="
  753.853,1225.85 753.853,1386.61 939.877,1386.61 939.877,1225.85 753.853,1225.85 
  "/>
<path clip-path="url(#clip6702)" d="
M939.877 1161.55 L939.877 1386.61 L1125.9 1386.61 L1125.9 1161.55 L939.877 1161.55 L939.877 1161.55  Z
  " fill="#009af9" fill-rule="evenodd" fill-opacity="1"/>
<polyline clip-path="url(#clip6702)" style="stroke:#000000; stroke-width:4; stroke-opacity:1; fill:none" points="
  939.877,1161.55 939.877,1386.61 1125.9,1386.61 1125.9,1161.55 939.877,1161.55 
  "/>
<path clip-path="url(#clip6702)" d="
M1125.9 1193.7 L1125.9 1386.61 L1311.93 1386.61 L1311.93 1193.7 L1125.9 1193.7 L1125.9 1193.7  Z
  " fill="#009af9" fill-rule="evenodd" fill-opacity="1"/>
<polyline clip-path="url(#clip6702)" style="stroke:#000000; stroke-width:4; stroke-opacity:1; fill:none" points="
  1125.9,1193.7 1125.9,1386.61 1311.93,1386.61 1311.93,1193.7 1125.9,1193.7 
  "/>
<path clip-path="url(#clip6702)" d="
M1311.93 1322.3 L1311.93 1386.61 L1497.95 1386.61 L1497.95 1322.3 L1311.93 1322.3 L1311.93 1322.3  Z
  " fill="#009af9" fill-rule="evenodd" fill-opacity="1"/>
<polyline clip-path="url(#clip6702)" style="stroke:#000000; stroke-width:4; stroke-opacity:1; fill:none" points="
  1311.93,1322.3 1311.93,1386.61 1497.95,1386.61 1497.95,1322.3 1311.93,1322.3 
  "/>
<path clip-path="url(#clip6702)" d="
M1497.95 1322.3 L1497.95 1386.61 L1683.97 1386.61 L1683.97 1322.3 L1497.95 1322.3 L1497.95 1322.3  Z
  " fill="#009af9" fill-rule="evenodd" fill-opacity="1"/>
<polyline clip-path="url(#clip6702)" style="stroke:#000000; stroke-width:4; stroke-opacity:1; fill:none" points="
  1497.95,1322.3 1497.95,1386.61 1683.97,1386.61 1683.97,1322.3 1497.95,1322.3 
  "/>
<path clip-path="url(#clip6702)" d="
M1683.97 1354.46 L1683.97 1386.61 L1870 1386.61 L1870 1354.46 L1683.97 1354.46 L1683.97 1354.46  Z
  " fill="#009af9" fill-rule="evenodd" fill-opacity="1"/>
<polyline clip-path="url(#clip6702)" style="stroke:#000000; stroke-width:4; stroke-opacity:1; fill:none" points="
  1683.97,1354.46 1683.97,1386.61 1870,1386.61 1870,1354.46 1683.97,1354.46 
  "/>
<path clip-path="url(#clip6702)" d="
M1870 1386.61 L1870 1386.61 L2056.02 1386.61 L2056.02 1386.61 L1870 1386.61 L1870 1386.61  Z
  " fill="#009af9" fill-rule="evenodd" fill-opacity="1"/>
<polyline clip-path="url(#clip6702)" style="stroke:#000000; stroke-width:4; stroke-opacity:1; fill:none" points="
  1870,1386.61 1870,1386.61 2056.02,1386.61 1870,1386.61 
  "/>
<path clip-path="url(#clip6702)" d="
M2056.02 1354.46 L2056.02 1386.61 L2242.05 1386.61 L2242.05 1354.46 L2056.02 1354.46 L2056.02 1354.46  Z
  " fill="#009af9" fill-rule="evenodd" fill-opacity="1"/>
<polyline clip-path="url(#clip6702)" style="stroke:#000000; stroke-width:4; stroke-opacity:1; fill:none" points="
  2056.02,1354.46 2056.02,1386.61 2242.05,1386.61 2242.05,1354.46 2056.02,1354.46 
  "/>
<path clip-path="url(#clip6702)" d="
M288.792 1236.57 L288.792 1386.61 L335.298 1386.61 L335.298 1236.57 L288.792 1236.57 L288.792 1236.57  Z
  " fill="#e26f46" fill-rule="evenodd" fill-opacity="1"/>
<polyline clip-path="url(#clip6702)" style="stroke:#000000; stroke-width:4; stroke-opacity:1; fill:none" points="
  288.792,1236.57 288.792,1386.61 335.298,1386.61 335.298,1236.57 288.792,1236.57 
  "/>
<path clip-path="url(#clip6702)" d="
M335.298 1386.61 L335.298 1386.61 L381.804 1386.61 L381.804 1386.61 L335.298 1386.61 L335.298 1386.61  Z
  " fill="#e26f46" fill-rule="evenodd" fill-opacity="1"/>
<polyline clip-path="url(#clip6702)" style="stroke:#000000; stroke-width:4; stroke-opacity:1; fill:none" points="
  335.298,1386.61 335.298,1386.61 381.804,1386.61 335.298,1386.61 
  "/>
<path clip-path="url(#clip6702)" d="
M381.804 886.472 L381.804 1386.61 L428.31 1386.61 L428.31 886.472 L381.804 886.472 L381.804 886.472  Z
  " fill="#e26f46" fill-rule="evenodd" fill-opacity="1"/>
<polyline clip-path="url(#clip6702)" style="stroke:#000000; stroke-width:4; stroke-opacity:1; fill:none" points="
  381.804,886.472 381.804,1386.61 428.31,1386.61 428.31,886.472 381.804,886.472 
  "/>
<path clip-path="url(#clip6702)" d="
M428.31 1386.61 L428.31 1386.61 L474.816 1386.61 L474.816 1386.61 L428.31 1386.61 L428.31 1386.61  Z
  " fill="#e26f46" fill-rule="evenodd" fill-opacity="1"/>
<polyline clip-path="url(#clip6702)" style="stroke:#000000; stroke-width:4; stroke-opacity:1; fill:none" points="
  428.31,1386.61 428.31,1386.61 474.816,1386.61 428.31,1386.61 
  "/>
<path clip-path="url(#clip6702)" d="
M474.816 586.391 L474.816 1386.61 L521.322 1386.61 L521.322 586.391 L474.816 586.391 L474.816 586.391  Z
  " fill="#e26f46" fill-rule="evenodd" fill-opacity="1"/>
<polyline clip-path="url(#clip6702)" style="stroke:#000000; stroke-width:4; stroke-opacity:1; fill:none" points="
  474.816,586.391 474.816,1386.61 521.322,1386.61 521.322,586.391 474.816,586.391 
  "/>
<path clip-path="url(#clip6702)" d="
M521.322 1386.61 L521.322 1386.61 L567.829 1386.61 L567.829 1386.61 L521.322 1386.61 L521.322 1386.61  Z
  " fill="#e26f46" fill-rule="evenodd" fill-opacity="1"/>
<polyline clip-path="url(#clip6702)" style="stroke:#000000; stroke-width:4; stroke-opacity:1; fill:none" points="
  521.322,1386.61 521.322,1386.61 567.829,1386.61 521.322,1386.61 
  "/>
<path clip-path="url(#clip6702)" d="
M567.829 86.2547 L567.829 1386.61 L614.335 1386.61 L614.335 86.2547 L567.829 86.2547 L567.829 86.2547  Z
  " fill="#e26f46" fill-rule="evenodd" fill-opacity="1"/>
<polyline clip-path="url(#clip6702)" style="stroke:#000000; stroke-width:4; stroke-opacity:1; fill:none" points="
  567.829,86.2547 567.829,1386.61 614.335,1386.61 614.335,86.2547 567.829,86.2547 
  "/>
<path clip-path="url(#clip6702)" d="
M614.335 1386.61 L614.335 1386.61 L660.841 1386.61 L660.841 1386.61 L614.335 1386.61 L614.335 1386.61  Z
  " fill="#e26f46" fill-rule="evenodd" fill-opacity="1"/>
<polyline clip-path="url(#clip6702)" style="stroke:#000000; stroke-width:4; stroke-opacity:1; fill:none" points="
  614.335,1386.61 614.335,1386.61 660.841,1386.61 614.335,1386.61 
  "/>
<path clip-path="url(#clip6702)" d="
M660.841 536.377 L660.841 1386.61 L707.347 1386.61 L707.347 536.377 L660.841 536.377 L660.841 536.377  Z
  " fill="#e26f46" fill-rule="evenodd" fill-opacity="1"/>
<polyline clip-path="url(#clip6702)" style="stroke:#000000; stroke-width:4; stroke-opacity:1; fill:none" points="
  660.841,536.377 660.841,1386.61 707.347,1386.61 707.347,536.377 660.841,536.377 
  "/>
<path clip-path="url(#clip6700)" d="
M1939.1 312.204 L2280.76 312.204 L2280.76 130.764 L1939.1 130.764  Z
  " fill="#ffffff" fill-rule="evenodd" fill-opacity="1"/>
<polyline clip-path="url(#clip6700)" style="stroke:#000000; stroke-width:4; stroke-opacity:1; fill:none" points="
  1939.1,312.204 2280.76,312.204 2280.76,130.764 1939.1,130.764 1939.1,312.204 
  "/>
<path clip-path="url(#clip6700)" d="
M1963.1 215.436 L2107.1 215.436 L2107.1 167.052 L1963.1 167.052 L1963.1 215.436  Z
  " fill="#009af9" fill-rule="evenodd" fill-opacity="1"/>
<polyline clip-path="url(#clip6700)" style="stroke:#000000; stroke-width:4; stroke-opacity:1; fill:none" points="
  1963.1,215.436 2107.1,215.436 2107.1,167.052 1963.1,167.052 1963.1,215.436 
  "/>
<g clip-path="url(#clip6700)">
<text style="fill:#000000; fill-opacity:1; font-family:Arial,Helvetica Neue,Helvetica,sans-serif; font-size:48px; text-anchor:start;" transform="rotate(0, 2131.1, 208.744)" x="2131.1" y="208.744">false</text>
</g>
<path clip-path="url(#clip6700)" d="
M1963.1 275.916 L2107.1 275.916 L2107.1 227.532 L1963.1 227.532 L1963.1 275.916  Z
  " fill="#e26f46" fill-rule="evenodd" fill-opacity="1"/>
<polyline clip-path="url(#clip6700)" style="stroke:#000000; stroke-width:4; stroke-opacity:1; fill:none" points="
  1963.1,275.916 2107.1,275.916 2107.1,227.532 1963.1,227.532 1963.1,275.916 
  "/>
<g clip-path="url(#clip6700)">
<text style="fill:#000000; fill-opacity:1; font-family:Arial,Helvetica Neue,Helvetica,sans-serif; font-size:48px; text-anchor:start;" transform="rotate(0, 2131.1, 269.224)" x="2131.1" y="269.224">true</text>
</g>
</svg>
