<?xml version="1.0" encoding="utf-8"?>
<svg xmlns="http://www.w3.org/2000/svg" xmlns:xlink="http://www.w3.org/1999/xlink" width="600" height="400" viewBox="0 0 2400 1600">
<defs>
  <clipPath id="clip7500">
    <rect x="0" y="0" width="2400" height="1600"/>
  </clipPath>
</defs>
<path clip-path="url(#clip7500)" d="
M0 1600 L2400 1600 L2400 0 L0 0  Z
  " fill="#ffffff" fill-rule="evenodd" fill-opacity="1"/>
<defs>
  <clipPath id="clip7501">
    <rect x="480" y="0" width="1681" height="1600"/>
  </clipPath>
</defs>
<path clip-path="url(#clip7500)" d="
M215.754 1425.62 L2352.76 1425.62 L2352.76 47.2441 L215.754 47.2441  Z
  " fill="#ffffff" fill-rule="evenodd" fill-opacity="1"/>
<defs>
  <clipPath id="clip7502">
    <rect x="215" y="47" width="2138" height="1379"/>
  </clipPath>
</defs>
<polyline clip-path="url(#clip7502)" style="stroke:#000000; stroke-width:2; stroke-opacity:0.1; fill:none" points="
  465.704,1425.62 465.704,47.2441 
  "/>
<polyline clip-path="url(#clip7502)" style="stroke:#000000; stroke-width:2; stroke-opacity:0.1; fill:none" points="
  778.875,1425.62 778.875,47.2441 
  "/>
<polyline clip-path="url(#clip7502)" style="stroke:#000000; stroke-width:2; stroke-opacity:0.1; fill:none" points="
  1092.05,1425.62 1092.05,47.2441 
  "/>
<polyline clip-path="url(#clip7502)" style="stroke:#000000; stroke-width:2; stroke-opacity:0.1; fill:none" points="
  1405.22,1425.62 1405.22,47.2441 
  "/>
<polyline clip-path="url(#clip7502)" style="stroke:#000000; stroke-width:2; stroke-opacity:0.1; fill:none" points="
  1718.39,1425.62 1718.39,47.2441 
  "/>
<polyline clip-path="url(#clip7502)" style="stroke:#000000; stroke-width:2; stroke-opacity:0.1; fill:none" points="
  2031.56,1425.62 2031.56,47.2441 
  "/>
<polyline clip-path="url(#clip7502)" style="stroke:#000000; stroke-width:2; stroke-opacity:0.1; fill:none" points="
  2344.73,1425.62 2344.73,47.2441 
  "/>
<polyline clip-path="url(#clip7502)" style="stroke:#000000; stroke-width:2; stroke-opacity:0.1; fill:none" points="
  215.754,1386.61 2352.76,1386.61 
  "/>
<polyline clip-path="url(#clip7502)" style="stroke:#000000; stroke-width:2; stroke-opacity:0.1; fill:none" points="
  215.754,1061.52 2352.76,1061.52 
  "/>
<polyline clip-path="url(#clip7502)" style="stroke:#000000; stroke-width:2; stroke-opacity:0.1; fill:none" points="
  215.754,736.431 2352.76,736.431 
  "/>
<polyline clip-path="url(#clip7502)" style="stroke:#000000; stroke-width:2; stroke-opacity:0.1; fill:none" points="
  215.754,411.343 2352.76,411.343 
  "/>
<polyline clip-path="url(#clip7502)" style="stroke:#000000; stroke-width:2; stroke-opacity:0.1; fill:none" points="
  215.754,86.2547 2352.76,86.2547 
  "/>
<polyline clip-path="url(#clip7500)" style="stroke:#000000; stroke-width:4; stroke-opacity:1; fill:none" points="
  215.754,1425.62 2352.76,1425.62 
  "/>
<polyline clip-path="url(#clip7500)" style="stroke:#000000; stroke-width:4; stroke-opacity:1; fill:none" points="
  215.754,1425.62 215.754,47.2441 
  "/>
<polyline clip-path="url(#clip7500)" style="stroke:#000000; stroke-width:4; stroke-opacity:1; fill:none" points="
  465.704,1425.62 465.704,1404.94 
  "/>
<polyline clip-path="url(#clip7500)" style="stroke:#000000; stroke-width:4; stroke-opacity:1; fill:none" points="
  778.875,1425.62 778.875,1404.94 
  "/>
<polyline clip-path="url(#clip7500)" style="stroke:#000000; stroke-width:4; stroke-opacity:1; fill:none" points="
  1092.05,1425.62 1092.05,1404.94 
  "/>
<polyline clip-path="url(#clip7500)" style="stroke:#000000; stroke-width:4; stroke-opacity:1; fill:none" points="
  1405.22,1425.62 1405.22,1404.94 
  "/>
<polyline clip-path="url(#clip7500)" style="stroke:#000000; stroke-width:4; stroke-opacity:1; fill:none" points="
  1718.39,1425.62 1718.39,1404.94 
  "/>
<polyline clip-path="url(#clip7500)" style="stroke:#000000; stroke-width:4; stroke-opacity:1; fill:none" points="
  2031.56,1425.62 2031.56,1404.94 
  "/>
<polyline clip-path="url(#clip7500)" style="stroke:#000000; stroke-width:4; stroke-opacity:1; fill:none" points="
  2344.73,1425.62 2344.73,1404.94 
  "/>
<polyline clip-path="url(#clip7500)" style="stroke:#000000; stroke-width:4; stroke-opacity:1; fill:none" points="
  215.754,1386.61 247.809,1386.61 
  "/>
<polyline clip-path="url(#clip7500)" style="stroke:#000000; stroke-width:4; stroke-opacity:1; fill:none" points="
  215.754,1061.52 247.809,1061.52 
  "/>
<polyline clip-path="url(#clip7500)" style="stroke:#000000; stroke-width:4; stroke-opacity:1; fill:none" points="
  215.754,736.431 247.809,736.431 
  "/>
<polyline clip-path="url(#clip7500)" style="stroke:#000000; stroke-width:4; stroke-opacity:1; fill:none" points="
  215.754,411.343 247.809,411.343 
  "/>
<polyline clip-path="url(#clip7500)" style="stroke:#000000; stroke-width:4; stroke-opacity:1; fill:none" points="
  215.754,86.2547 247.809,86.2547 
  "/>
<g clip-path="url(#clip7500)">
<text style="fill:#000000; fill-opacity:1; font-family:Arial,Helvetica Neue,Helvetica,sans-serif; font-size:48px; text-anchor:middle;" transform="rotate(0, 465.704, 1479.62)" x="465.704" y="1479.62">16</text>
</g>
<g clip-path="url(#clip7500)">
<text style="fill:#000000; fill-opacity:1; font-family:Arial,Helvetica Neue,Helvetica,sans-serif; font-size:48px; text-anchor:middle;" transform="rotate(0, 778.875, 1479.62)" x="778.875" y="1479.62">18</text>
</g>
<g clip-path="url(#clip7500)">
<text style="fill:#000000; fill-opacity:1; font-family:Arial,Helvetica Neue,Helvetica,sans-serif; font-size:48px; text-anchor:middle;" transform="rotate(0, 1092.05, 1479.62)" x="1092.05" y="1479.62">20</text>
</g>
<g clip-path="url(#clip7500)">
<text style="fill:#000000; fill-opacity:1; font-family:Arial,Helvetica Neue,Helvetica,sans-serif; font-size:48px; text-anchor:middle;" transform="rotate(0, 1405.22, 1479.62)" x="1405.22" y="1479.62">22</text>
</g>
<g clip-path="url(#clip7500)">
<text style="fill:#000000; fill-opacity:1; font-family:Arial,Helvetica Neue,Helvetica,sans-serif; font-size:48px; text-anchor:middle;" transform="rotate(0, 1718.39, 1479.62)" x="1718.39" y="1479.62">24</text>
</g>
<g clip-path="url(#clip7500)">
<text style="fill:#000000; fill-opacity:1; font-family:Arial,Helvetica Neue,Helvetica,sans-serif; font-size:48px; text-anchor:middle;" transform="rotate(0, 2031.56, 1479.62)" x="2031.56" y="1479.62">26</text>
</g>
<g clip-path="url(#clip7500)">
<text style="fill:#000000; fill-opacity:1; font-family:Arial,Helvetica Neue,Helvetica,sans-serif; font-size:48px; text-anchor:middle;" transform="rotate(0, 2344.73, 1479.62)" x="2344.73" y="1479.62">28</text>
</g>
<g clip-path="url(#clip7500)">
<text style="fill:#000000; fill-opacity:1; font-family:Arial,Helvetica Neue,Helvetica,sans-serif; font-size:48px; text-anchor:end;" transform="rotate(0, 191.754, 1404.11)" x="191.754" y="1404.11">0.0</text>
</g>
<g clip-path="url(#clip7500)">
<text style="fill:#000000; fill-opacity:1; font-family:Arial,Helvetica Neue,Helvetica,sans-serif; font-size:48px; text-anchor:end;" transform="rotate(0, 191.754, 1079.02)" x="191.754" y="1079.02">0.1</text>
</g>
<g clip-path="url(#clip7500)">
<text style="fill:#000000; fill-opacity:1; font-family:Arial,Helvetica Neue,Helvetica,sans-serif; font-size:48px; text-anchor:end;" transform="rotate(0, 191.754, 753.931)" x="191.754" y="753.931">0.2</text>
</g>
<g clip-path="url(#clip7500)">
<text style="fill:#000000; fill-opacity:1; font-family:Arial,Helvetica Neue,Helvetica,sans-serif; font-size:48px; text-anchor:end;" transform="rotate(0, 191.754, 428.843)" x="191.754" y="428.843">0.3</text>
</g>
<g clip-path="url(#clip7500)">
<text style="fill:#000000; fill-opacity:1; font-family:Arial,Helvetica Neue,Helvetica,sans-serif; font-size:48px; text-anchor:end;" transform="rotate(0, 191.754, 103.755)" x="191.754" y="103.755">0.4</text>
</g>
<g clip-path="url(#clip7500)">
<text style="fill:#000000; fill-opacity:1; font-family:Arial,Helvetica Neue,Helvetica,sans-serif; font-size:66px; text-anchor:middle;" transform="rotate(0, 1284.25, 1559.48)" x="1284.25" y="1559.48">No. of Support vectors</text>
</g>
<g clip-path="url(#clip7500)">
<text style="fill:#000000; fill-opacity:1; font-family:Arial,Helvetica Neue,Helvetica,sans-serif; font-size:66px; text-anchor:middle;" transform="rotate(-90, 89.2861, 736.431)" x="89.2861" y="736.431">count</text>
</g>
<path clip-path="url(#clip7502)" d="
M1405.22 86.2547 L1405.22 1386.61 L1483.51 1386.61 L1483.51 86.2547 L1405.22 86.2547 L1405.22 86.2547  Z
  " fill="#009af9" fill-rule="evenodd" fill-opacity="1"/>
<polyline clip-path="url(#clip7502)" style="stroke:#000000; stroke-width:4; stroke-opacity:1; fill:none" points="
  1405.22,86.2547 1405.22,1386.61 1483.51,1386.61 1483.51,86.2547 1405.22,86.2547 
  "/>
<path clip-path="url(#clip7502)" d="
M1483.51 1386.61 L1483.51 1386.61 L1561.8 1386.61 L1561.8 1386.61 L1483.51 1386.61 L1483.51 1386.61  Z
  " fill="#009af9" fill-rule="evenodd" fill-opacity="1"/>
<polyline clip-path="url(#clip7502)" style="stroke:#000000; stroke-width:4; stroke-opacity:1; fill:none" points="
  1483.51,1386.61 1483.51,1386.61 1561.8,1386.61 1483.51,1386.61 
  "/>
<path clip-path="url(#clip7502)" d="
M1561.8 1386.61 L1561.8 1386.61 L1640.1 1386.61 L1640.1 1386.61 L1561.8 1386.61 L1561.8 1386.61  Z
  " fill="#009af9" fill-rule="evenodd" fill-opacity="1"/>
<polyline clip-path="url(#clip7502)" style="stroke:#000000; stroke-width:4; stroke-opacity:1; fill:none" points="
  1561.8,1386.61 1561.8,1386.61 1640.1,1386.61 1561.8,1386.61 
  "/>
<path clip-path="url(#clip7502)" d="
M1640.1 1386.61 L1640.1 1386.61 L1718.39 1386.61 L1718.39 1386.61 L1640.1 1386.61 L1640.1 1386.61  Z
  " fill="#009af9" fill-rule="evenodd" fill-opacity="1"/>
<polyline clip-path="url(#clip7502)" style="stroke:#000000; stroke-width:4; stroke-opacity:1; fill:none" points="
  1640.1,1386.61 1640.1,1386.61 1718.39,1386.61 1640.1,1386.61 
  "/>
<path clip-path="url(#clip7502)" d="
M1718.39 86.2547 L1718.39 1386.61 L1796.68 1386.61 L1796.68 86.2547 L1718.39 86.2547 L1718.39 86.2547  Z
  " fill="#009af9" fill-rule="evenodd" fill-opacity="1"/>
<polyline clip-path="url(#clip7502)" style="stroke:#000000; stroke-width:4; stroke-opacity:1; fill:none" points="
  1718.39,86.2547 1718.39,1386.61 1796.68,1386.61 1796.68,86.2547 1718.39,86.2547 
  "/>
<path clip-path="url(#clip7502)" d="
M1796.68 1386.61 L1796.68 1386.61 L1874.97 1386.61 L1874.97 1386.61 L1796.68 1386.61 L1796.68 1386.61  Z
  " fill="#009af9" fill-rule="evenodd" fill-opacity="1"/>
<polyline clip-path="url(#clip7502)" style="stroke:#000000; stroke-width:4; stroke-opacity:1; fill:none" points="
  1796.68,1386.61 1796.68,1386.61 1874.97,1386.61 1796.68,1386.61 
  "/>
<path clip-path="url(#clip7502)" d="
M1874.97 86.2547 L1874.97 1386.61 L1953.27 1386.61 L1953.27 86.2547 L1874.97 86.2547 L1874.97 86.2547  Z
  " fill="#009af9" fill-rule="evenodd" fill-opacity="1"/>
<polyline clip-path="url(#clip7502)" style="stroke:#000000; stroke-width:4; stroke-opacity:1; fill:none" points="
  1874.97,86.2547 1874.97,1386.61 1953.27,1386.61 1953.27,86.2547 1874.97,86.2547 
  "/>
<path clip-path="url(#clip7502)" d="
M1953.27 1386.61 L1953.27 1386.61 L2031.56 1386.61 L2031.56 1386.61 L1953.27 1386.61 L1953.27 1386.61  Z
  " fill="#009af9" fill-rule="evenodd" fill-opacity="1"/>
<polyline clip-path="url(#clip7502)" style="stroke:#000000; stroke-width:4; stroke-opacity:1; fill:none" points="
  1953.27,1386.61 1953.27,1386.61 2031.56,1386.61 1953.27,1386.61 
  "/>
<path clip-path="url(#clip7502)" d="
M2031.56 86.2547 L2031.56 1386.61 L2109.85 1386.61 L2109.85 86.2547 L2031.56 86.2547 L2031.56 86.2547  Z
  " fill="#009af9" fill-rule="evenodd" fill-opacity="1"/>
<polyline clip-path="url(#clip7502)" style="stroke:#000000; stroke-width:4; stroke-opacity:1; fill:none" points="
  2031.56,86.2547 2031.56,1386.61 2109.85,1386.61 2109.85,86.2547 2031.56,86.2547 
  "/>
<path clip-path="url(#clip7502)" d="
M2109.85 1386.61 L2109.85 1386.61 L2188.15 1386.61 L2188.15 1386.61 L2109.85 1386.61 L2109.85 1386.61  Z
  " fill="#009af9" fill-rule="evenodd" fill-opacity="1"/>
<polyline clip-path="url(#clip7502)" style="stroke:#000000; stroke-width:4; stroke-opacity:1; fill:none" points="
  2109.85,1386.61 2109.85,1386.61 2188.15,1386.61 2109.85,1386.61 
  "/>
<path clip-path="url(#clip7502)" d="
M2188.15 86.2547 L2188.15 1386.61 L2266.44 1386.61 L2266.44 86.2547 L2188.15 86.2547 L2188.15 86.2547  Z
  " fill="#009af9" fill-rule="evenodd" fill-opacity="1"/>
<polyline clip-path="url(#clip7502)" style="stroke:#000000; stroke-width:4; stroke-opacity:1; fill:none" points="
  2188.15,86.2547 2188.15,1386.61 2266.44,1386.61 2266.44,86.2547 2188.15,86.2547 
  "/>
<path clip-path="url(#clip7502)" d="
M309.118 1283.95 L309.118 1386.61 L465.704 1386.61 L465.704 1283.95 L309.118 1283.95 L309.118 1283.95  Z
  " fill="#e26f46" fill-rule="evenodd" fill-opacity="1"/>
<polyline clip-path="url(#clip7502)" style="stroke:#000000; stroke-width:4; stroke-opacity:1; fill:none" points="
  309.118,1283.95 309.118,1386.61 465.704,1386.61 465.704,1283.95 309.118,1283.95 
  "/>
<path clip-path="url(#clip7502)" d="
M465.704 1112.85 L465.704 1386.61 L622.289 1386.61 L622.289 1112.85 L465.704 1112.85 L465.704 1112.85  Z
  " fill="#e26f46" fill-rule="evenodd" fill-opacity="1"/>
<polyline clip-path="url(#clip7502)" style="stroke:#000000; stroke-width:4; stroke-opacity:1; fill:none" points="
  465.704,1112.85 465.704,1386.61 622.289,1386.61 622.289,1112.85 465.704,1112.85 
  "/>
<path clip-path="url(#clip7502)" d="
M622.289 873.311 L622.289 1386.61 L778.875 1386.61 L778.875 873.311 L622.289 873.311 L622.289 873.311  Z
  " fill="#e26f46" fill-rule="evenodd" fill-opacity="1"/>
<polyline clip-path="url(#clip7502)" style="stroke:#000000; stroke-width:4; stroke-opacity:1; fill:none" points="
  622.289,873.311 622.289,1386.61 778.875,1386.61 778.875,873.311 622.289,873.311 
  "/>
<path clip-path="url(#clip7502)" d="
M778.875 565.332 L778.875 1386.61 L935.461 1386.61 L935.461 565.332 L778.875 565.332 L778.875 565.332  Z
  " fill="#e26f46" fill-rule="evenodd" fill-opacity="1"/>
<polyline clip-path="url(#clip7502)" style="stroke:#000000; stroke-width:4; stroke-opacity:1; fill:none" points="
  778.875,565.332 778.875,1386.61 935.461,1386.61 935.461,565.332 778.875,565.332 
  "/>
<path clip-path="url(#clip7502)" d="
M935.461 873.311 L935.461 1386.61 L1092.05 1386.61 L1092.05 873.311 L935.461 873.311 L935.461 873.311  Z
  " fill="#e26f46" fill-rule="evenodd" fill-opacity="1"/>
<polyline clip-path="url(#clip7502)" style="stroke:#000000; stroke-width:4; stroke-opacity:1; fill:none" points="
  935.461,873.311 935.461,1386.61 1092.05,1386.61 1092.05,873.311 935.461,873.311 
  "/>
<path clip-path="url(#clip7502)" d="
M1092.05 667.992 L1092.05 1386.61 L1248.63 1386.61 L1248.63 667.992 L1092.05 667.992 L1092.05 667.992  Z
  " fill="#e26f46" fill-rule="evenodd" fill-opacity="1"/>
<polyline clip-path="url(#clip7502)" style="stroke:#000000; stroke-width:4; stroke-opacity:1; fill:none" points="
  1092.05,667.992 1092.05,1386.61 1248.63,1386.61 1248.63,667.992 1092.05,667.992 
  "/>
<path clip-path="url(#clip7502)" d="
M1248.63 1078.63 L1248.63 1386.61 L1405.22 1386.61 L1405.22 1078.63 L1248.63 1078.63 L1248.63 1078.63  Z
  " fill="#e26f46" fill-rule="evenodd" fill-opacity="1"/>
<polyline clip-path="url(#clip7502)" style="stroke:#000000; stroke-width:4; stroke-opacity:1; fill:none" points="
  1248.63,1078.63 1248.63,1386.61 1405.22,1386.61 1405.22,1078.63 1248.63,1078.63 
  "/>
<path clip-path="url(#clip7500)" d="
M1939.1 312.204 L2280.76 312.204 L2280.76 130.764 L1939.1 130.764  Z
  " fill="#ffffff" fill-rule="evenodd" fill-opacity="1"/>
<polyline clip-path="url(#clip7500)" style="stroke:#000000; stroke-width:4; stroke-opacity:1; fill:none" points="
  1939.1,312.204 2280.76,312.204 2280.76,130.764 1939.1,130.764 1939.1,312.204 
  "/>
<path clip-path="url(#clip7500)" d="
M1963.1 215.436 L2107.1 215.436 L2107.1 167.052 L1963.1 167.052 L1963.1 215.436  Z
  " fill="#009af9" fill-rule="evenodd" fill-opacity="1"/>
<polyline clip-path="url(#clip7500)" style="stroke:#000000; stroke-width:4; stroke-opacity:1; fill:none" points="
  1963.1,215.436 2107.1,215.436 2107.1,167.052 1963.1,167.052 1963.1,215.436 
  "/>
<g clip-path="url(#clip7500)">
<text style="fill:#000000; fill-opacity:1; font-family:Arial,Helvetica Neue,Helvetica,sans-serif; font-size:48px; text-anchor:start;" transform="rotate(0, 2131.1, 208.744)" x="2131.1" y="208.744">false</text>
</g>
<path clip-path="url(#clip7500)" d="
M1963.1 275.916 L2107.1 275.916 L2107.1 227.532 L1963.1 227.532 L1963.1 275.916  Z
  " fill="#e26f46" fill-rule="evenodd" fill-opacity="1"/>
<polyline clip-path="url(#clip7500)" style="stroke:#000000; stroke-width:4; stroke-opacity:1; fill:none" points="
  1963.1,275.916 2107.1,275.916 2107.1,227.532 1963.1,227.532 1963.1,275.916 
  "/>
<g clip-path="url(#clip7500)">
<text style="fill:#000000; fill-opacity:1; font-family:Arial,Helvetica Neue,Helvetica,sans-serif; font-size:48px; text-anchor:start;" transform="rotate(0, 2131.1, 269.224)" x="2131.1" y="269.224">true</text>
</g>
</svg>
