<?xml version="1.0" encoding="utf-8"?>
<svg xmlns="http://www.w3.org/2000/svg" xmlns:xlink="http://www.w3.org/1999/xlink" width="600" height="400" viewBox="0 0 2400 1600">
<defs>
  <clipPath id="clip4700">
    <rect x="0" y="0" width="2400" height="1600"/>
  </clipPath>
</defs>
<path clip-path="url(#clip4700)" d="
M0 1600 L2400 1600 L2400 0 L0 0  Z
  " fill="#ffffff" fill-rule="evenodd" fill-opacity="1"/>
<defs>
  <clipPath id="clip4701">
    <rect x="480" y="0" width="1681" height="1600"/>
  </clipPath>
</defs>
<path clip-path="url(#clip4700)" d="
M242.516 1425.62 L2352.76 1425.62 L2352.76 47.2441 L242.516 47.2441  Z
  " fill="#ffffff" fill-rule="evenodd" fill-opacity="1"/>
<defs>
  <clipPath id="clip4702">
    <rect x="242" y="47" width="2111" height="1379"/>
  </clipPath>
</defs>
<polyline clip-path="url(#clip4702)" style="stroke:#000000; stroke-width:2; stroke-opacity:0.1; fill:none" points="
  358.583,1425.62 358.583,47.2441 
  "/>
<polyline clip-path="url(#clip4702)" style="stroke:#000000; stroke-width:2; stroke-opacity:0.1; fill:none" points="
  895.185,1425.62 895.185,47.2441 
  "/>
<polyline clip-path="url(#clip4702)" style="stroke:#000000; stroke-width:2; stroke-opacity:0.1; fill:none" points="
  1431.79,1425.62 1431.79,47.2441 
  "/>
<polyline clip-path="url(#clip4702)" style="stroke:#000000; stroke-width:2; stroke-opacity:0.1; fill:none" points="
  1968.39,1425.62 1968.39,47.2441 
  "/>
<polyline clip-path="url(#clip4702)" style="stroke:#000000; stroke-width:2; stroke-opacity:0.1; fill:none" points="
  242.516,1386.61 2352.76,1386.61 
  "/>
<polyline clip-path="url(#clip4702)" style="stroke:#000000; stroke-width:2; stroke-opacity:0.1; fill:none" points="
  242.516,1044.41 2352.76,1044.41 
  "/>
<polyline clip-path="url(#clip4702)" style="stroke:#000000; stroke-width:2; stroke-opacity:0.1; fill:none" points="
  242.516,702.212 2352.76,702.212 
  "/>
<polyline clip-path="url(#clip4702)" style="stroke:#000000; stroke-width:2; stroke-opacity:0.1; fill:none" points="
  242.516,360.013 2352.76,360.013 
  "/>
<polyline clip-path="url(#clip4700)" style="stroke:#000000; stroke-width:4; stroke-opacity:1; fill:none" points="
  242.516,1425.62 2352.76,1425.62 
  "/>
<polyline clip-path="url(#clip4700)" style="stroke:#000000; stroke-width:4; stroke-opacity:1; fill:none" points="
  242.516,1425.62 242.516,47.2441 
  "/>
<polyline clip-path="url(#clip4700)" style="stroke:#000000; stroke-width:4; stroke-opacity:1; fill:none" points="
  358.583,1425.62 358.583,1404.94 
  "/>
<polyline clip-path="url(#clip4700)" style="stroke:#000000; stroke-width:4; stroke-opacity:1; fill:none" points="
  895.185,1425.62 895.185,1404.94 
  "/>
<polyline clip-path="url(#clip4700)" style="stroke:#000000; stroke-width:4; stroke-opacity:1; fill:none" points="
  1431.79,1425.62 1431.79,1404.94 
  "/>
<polyline clip-path="url(#clip4700)" style="stroke:#000000; stroke-width:4; stroke-opacity:1; fill:none" points="
  1968.39,1425.62 1968.39,1404.94 
  "/>
<polyline clip-path="url(#clip4700)" style="stroke:#000000; stroke-width:4; stroke-opacity:1; fill:none" points="
  242.516,1386.61 274.17,1386.61 
  "/>
<polyline clip-path="url(#clip4700)" style="stroke:#000000; stroke-width:4; stroke-opacity:1; fill:none" points="
  242.516,1044.41 274.17,1044.41 
  "/>
<polyline clip-path="url(#clip4700)" style="stroke:#000000; stroke-width:4; stroke-opacity:1; fill:none" points="
  242.516,702.212 274.17,702.212 
  "/>
<polyline clip-path="url(#clip4700)" style="stroke:#000000; stroke-width:4; stroke-opacity:1; fill:none" points="
  242.516,360.013 274.17,360.013 
  "/>
<g clip-path="url(#clip4700)">
<text style="fill:#000000; fill-opacity:1; font-family:Arial,Helvetica Neue,Helvetica,sans-serif; font-size:48px; text-anchor:middle;" transform="rotate(0, 358.583, 1479.62)" x="358.583" y="1479.62">20</text>
</g>
<g clip-path="url(#clip4700)">
<text style="fill:#000000; fill-opacity:1; font-family:Arial,Helvetica Neue,Helvetica,sans-serif; font-size:48px; text-anchor:middle;" transform="rotate(0, 895.185, 1479.62)" x="895.185" y="1479.62">30</text>
</g>
<g clip-path="url(#clip4700)">
<text style="fill:#000000; fill-opacity:1; font-family:Arial,Helvetica Neue,Helvetica,sans-serif; font-size:48px; text-anchor:middle;" transform="rotate(0, 1431.79, 1479.62)" x="1431.79" y="1479.62">40</text>
</g>
<g clip-path="url(#clip4700)">
<text style="fill:#000000; fill-opacity:1; font-family:Arial,Helvetica Neue,Helvetica,sans-serif; font-size:48px; text-anchor:middle;" transform="rotate(0, 1968.39, 1479.62)" x="1968.39" y="1479.62">50</text>
</g>
<g clip-path="url(#clip4700)">
<text style="fill:#000000; fill-opacity:1; font-family:Arial,Helvetica Neue,Helvetica,sans-serif; font-size:48px; text-anchor:end;" transform="rotate(0, 218.516, 1404.11)" x="218.516" y="1404.11">0.00</text>
</g>
<g clip-path="url(#clip4700)">
<text style="fill:#000000; fill-opacity:1; font-family:Arial,Helvetica Neue,Helvetica,sans-serif; font-size:48px; text-anchor:end;" transform="rotate(0, 218.516, 1061.91)" x="218.516" y="1061.91">0.01</text>
</g>
<g clip-path="url(#clip4700)">
<text style="fill:#000000; fill-opacity:1; font-family:Arial,Helvetica Neue,Helvetica,sans-serif; font-size:48px; text-anchor:end;" transform="rotate(0, 218.516, 719.712)" x="218.516" y="719.712">0.02</text>
</g>
<g clip-path="url(#clip4700)">
<text style="fill:#000000; fill-opacity:1; font-family:Arial,Helvetica Neue,Helvetica,sans-serif; font-size:48px; text-anchor:end;" transform="rotate(0, 218.516, 377.513)" x="218.516" y="377.513">0.03</text>
</g>
<g clip-path="url(#clip4700)">
<text style="fill:#000000; fill-opacity:1; font-family:Arial,Helvetica Neue,Helvetica,sans-serif; font-size:66px; text-anchor:middle;" transform="rotate(0, 1297.64, 1559.48)" x="1297.64" y="1559.48">No. of Support vectors</text>
</g>
<g clip-path="url(#clip4700)">
<text style="fill:#000000; fill-opacity:1; font-family:Arial,Helvetica Neue,Helvetica,sans-serif; font-size:66px; text-anchor:middle;" transform="rotate(-90, 89.2861, 736.431)" x="89.2861" y="736.431">count</text>
</g>
<path clip-path="url(#clip4702)" d="
M358.583 1181.29 L358.583 1386.61 L626.884 1386.61 L626.884 1181.29 L358.583 1181.29 L358.583 1181.29  Z
  " fill="#009af9" fill-rule="evenodd" fill-opacity="1"/>
<polyline clip-path="url(#clip4702)" style="stroke:#000000; stroke-width:4; stroke-opacity:1; fill:none" points="
  358.583,1181.29 358.583,1386.61 626.884,1386.61 626.884,1181.29 358.583,1181.29 
  "/>
<path clip-path="url(#clip4702)" d="
M626.884 291.574 L626.884 1386.61 L895.185 1386.61 L895.185 291.574 L626.884 291.574 L626.884 291.574  Z
  " fill="#009af9" fill-rule="evenodd" fill-opacity="1"/>
<polyline clip-path="url(#clip4702)" style="stroke:#000000; stroke-width:4; stroke-opacity:1; fill:none" points="
  626.884,291.574 626.884,1386.61 895.185,1386.61 895.185,291.574 626.884,291.574 
  "/>
<path clip-path="url(#clip4702)" d="
M895.185 291.574 L895.185 1386.61 L1163.49 1386.61 L1163.49 291.574 L895.185 291.574 L895.185 291.574  Z
  " fill="#009af9" fill-rule="evenodd" fill-opacity="1"/>
<polyline clip-path="url(#clip4702)" style="stroke:#000000; stroke-width:4; stroke-opacity:1; fill:none" points="
  895.185,291.574 895.185,1386.61 1163.49,1386.61 1163.49,291.574 895.185,291.574 
  "/>
<path clip-path="url(#clip4702)" d="
M1163.49 86.2547 L1163.49 1386.61 L1431.79 1386.61 L1431.79 86.2547 L1163.49 86.2547 L1163.49 86.2547  Z
  " fill="#009af9" fill-rule="evenodd" fill-opacity="1"/>
<polyline clip-path="url(#clip4702)" style="stroke:#000000; stroke-width:4; stroke-opacity:1; fill:none" points="
  1163.49,86.2547 1163.49,1386.61 1431.79,1386.61 1431.79,86.2547 1163.49,86.2547 
  "/>
<path clip-path="url(#clip4702)" d="
M1431.79 154.694 L1431.79 1386.61 L1700.09 1386.61 L1700.09 154.694 L1431.79 154.694 L1431.79 154.694  Z
  " fill="#009af9" fill-rule="evenodd" fill-opacity="1"/>
<polyline clip-path="url(#clip4702)" style="stroke:#000000; stroke-width:4; stroke-opacity:1; fill:none" points="
  1431.79,154.694 1431.79,1386.61 1700.09,1386.61 1700.09,154.694 1431.79,154.694 
  "/>
<path clip-path="url(#clip4702)" d="
M1700.09 86.2547 L1700.09 1386.61 L1968.39 1386.61 L1968.39 86.2547 L1700.09 86.2547 L1700.09 86.2547  Z
  " fill="#009af9" fill-rule="evenodd" fill-opacity="1"/>
<polyline clip-path="url(#clip4702)" style="stroke:#000000; stroke-width:4; stroke-opacity:1; fill:none" points="
  1700.09,86.2547 1700.09,1386.61 1968.39,1386.61 1968.39,86.2547 1700.09,86.2547 
  "/>
<path clip-path="url(#clip4702)" d="
M1968.39 770.651 L1968.39 1386.61 L2236.69 1386.61 L2236.69 770.651 L1968.39 770.651 L1968.39 770.651  Z
  " fill="#009af9" fill-rule="evenodd" fill-opacity="1"/>
<polyline clip-path="url(#clip4702)" style="stroke:#000000; stroke-width:4; stroke-opacity:1; fill:none" points="
  1968.39,770.651 1968.39,1386.61 2236.69,1386.61 2236.69,770.651 1968.39,770.651 
  "/>
</svg>
