<?xml version="1.0" encoding="utf-8"?>
<svg xmlns="http://www.w3.org/2000/svg" xmlns:xlink="http://www.w3.org/1999/xlink" width="600" height="400" viewBox="0 0 2400 1600">
<defs>
  <clipPath id="clip5900">
    <rect x="0" y="0" width="2400" height="1600"/>
  </clipPath>
</defs>
<path clip-path="url(#clip5900)" d="
M0 1600 L2400 1600 L2400 0 L0 0  Z
  " fill="#ffffff" fill-rule="evenodd" fill-opacity="1"/>
<defs>
  <clipPath id="clip5901">
    <rect x="480" y="0" width="1681" height="1600"/>
  </clipPath>
</defs>
<path clip-path="url(#clip5900)" d="
M242.516 1425.62 L2352.76 1425.62 L2352.76 47.2441 L242.516 47.2441  Z
  " fill="#ffffff" fill-rule="evenodd" fill-opacity="1"/>
<defs>
  <clipPath id="clip5902">
    <rect x="242" y="47" width="2111" height="1379"/>
  </clipPath>
</defs>
<polyline clip-path="url(#clip5902)" style="stroke:#000000; stroke-width:2; stroke-opacity:0.1; fill:none" points="
  429.209,1425.62 429.209,47.2441 
  "/>
<polyline clip-path="url(#clip5902)" style="stroke:#000000; stroke-width:2; stroke-opacity:0.1; fill:none" points="
  1032.39,1425.62 1032.39,47.2441 
  "/>
<polyline clip-path="url(#clip5902)" style="stroke:#000000; stroke-width:2; stroke-opacity:0.1; fill:none" points="
  1635.57,1425.62 1635.57,47.2441 
  "/>
<polyline clip-path="url(#clip5902)" style="stroke:#000000; stroke-width:2; stroke-opacity:0.1; fill:none" points="
  2238.75,1425.62 2238.75,47.2441 
  "/>
<polyline clip-path="url(#clip5902)" style="stroke:#000000; stroke-width:2; stroke-opacity:0.1; fill:none" points="
  242.516,1386.61 2352.76,1386.61 
  "/>
<polyline clip-path="url(#clip5902)" style="stroke:#000000; stroke-width:2; stroke-opacity:0.1; fill:none" points="
  242.516,1099.77 2352.76,1099.77 
  "/>
<polyline clip-path="url(#clip5902)" style="stroke:#000000; stroke-width:2; stroke-opacity:0.1; fill:none" points="
  242.516,812.923 2352.76,812.923 
  "/>
<polyline clip-path="url(#clip5902)" style="stroke:#000000; stroke-width:2; stroke-opacity:0.1; fill:none" points="
  242.516,526.08 2352.76,526.08 
  "/>
<polyline clip-path="url(#clip5902)" style="stroke:#000000; stroke-width:2; stroke-opacity:0.1; fill:none" points="
  242.516,239.237 2352.76,239.237 
  "/>
<polyline clip-path="url(#clip5900)" style="stroke:#000000; stroke-width:4; stroke-opacity:1; fill:none" points="
  242.516,1425.62 2352.76,1425.62 
  "/>
<polyline clip-path="url(#clip5900)" style="stroke:#000000; stroke-width:4; stroke-opacity:1; fill:none" points="
  242.516,1425.62 242.516,47.2441 
  "/>
<polyline clip-path="url(#clip5900)" style="stroke:#000000; stroke-width:4; stroke-opacity:1; fill:none" points="
  429.209,1425.62 429.209,1404.94 
  "/>
<polyline clip-path="url(#clip5900)" style="stroke:#000000; stroke-width:4; stroke-opacity:1; fill:none" points="
  1032.39,1425.62 1032.39,1404.94 
  "/>
<polyline clip-path="url(#clip5900)" style="stroke:#000000; stroke-width:4; stroke-opacity:1; fill:none" points="
  1635.57,1425.62 1635.57,1404.94 
  "/>
<polyline clip-path="url(#clip5900)" style="stroke:#000000; stroke-width:4; stroke-opacity:1; fill:none" points="
  2238.75,1425.62 2238.75,1404.94 
  "/>
<polyline clip-path="url(#clip5900)" style="stroke:#000000; stroke-width:4; stroke-opacity:1; fill:none" points="
  242.516,1386.61 274.17,1386.61 
  "/>
<polyline clip-path="url(#clip5900)" style="stroke:#000000; stroke-width:4; stroke-opacity:1; fill:none" points="
  242.516,1099.77 274.17,1099.77 
  "/>
<polyline clip-path="url(#clip5900)" style="stroke:#000000; stroke-width:4; stroke-opacity:1; fill:none" points="
  242.516,812.923 274.17,812.923 
  "/>
<polyline clip-path="url(#clip5900)" style="stroke:#000000; stroke-width:4; stroke-opacity:1; fill:none" points="
  242.516,526.08 274.17,526.08 
  "/>
<polyline clip-path="url(#clip5900)" style="stroke:#000000; stroke-width:4; stroke-opacity:1; fill:none" points="
  242.516,239.237 274.17,239.237 
  "/>
<g clip-path="url(#clip5900)">
<text style="fill:#000000; fill-opacity:1; font-family:Arial,Helvetica Neue,Helvetica,sans-serif; font-size:48px; text-anchor:middle;" transform="rotate(0, 429.209, 1479.62)" x="429.209" y="1479.62">20</text>
</g>
<g clip-path="url(#clip5900)">
<text style="fill:#000000; fill-opacity:1; font-family:Arial,Helvetica Neue,Helvetica,sans-serif; font-size:48px; text-anchor:middle;" transform="rotate(0, 1032.39, 1479.62)" x="1032.39" y="1479.62">30</text>
</g>
<g clip-path="url(#clip5900)">
<text style="fill:#000000; fill-opacity:1; font-family:Arial,Helvetica Neue,Helvetica,sans-serif; font-size:48px; text-anchor:middle;" transform="rotate(0, 1635.57, 1479.62)" x="1635.57" y="1479.62">40</text>
</g>
<g clip-path="url(#clip5900)">
<text style="fill:#000000; fill-opacity:1; font-family:Arial,Helvetica Neue,Helvetica,sans-serif; font-size:48px; text-anchor:middle;" transform="rotate(0, 2238.75, 1479.62)" x="2238.75" y="1479.62">50</text>
</g>
<g clip-path="url(#clip5900)">
<text style="fill:#000000; fill-opacity:1; font-family:Arial,Helvetica Neue,Helvetica,sans-serif; font-size:48px; text-anchor:end;" transform="rotate(0, 218.516, 1404.11)" x="218.516" y="1404.11">0.00</text>
</g>
<g clip-path="url(#clip5900)">
<text style="fill:#000000; fill-opacity:1; font-family:Arial,Helvetica Neue,Helvetica,sans-serif; font-size:48px; text-anchor:end;" transform="rotate(0, 218.516, 1117.27)" x="218.516" y="1117.27">0.25</text>
</g>
<g clip-path="url(#clip5900)">
<text style="fill:#000000; fill-opacity:1; font-family:Arial,Helvetica Neue,Helvetica,sans-serif; font-size:48px; text-anchor:end;" transform="rotate(0, 218.516, 830.423)" x="218.516" y="830.423">0.50</text>
</g>
<g clip-path="url(#clip5900)">
<text style="fill:#000000; fill-opacity:1; font-family:Arial,Helvetica Neue,Helvetica,sans-serif; font-size:48px; text-anchor:end;" transform="rotate(0, 218.516, 543.58)" x="218.516" y="543.58">0.75</text>
</g>
<g clip-path="url(#clip5900)">
<text style="fill:#000000; fill-opacity:1; font-family:Arial,Helvetica Neue,Helvetica,sans-serif; font-size:48px; text-anchor:end;" transform="rotate(0, 218.516, 256.737)" x="218.516" y="256.737">1.00</text>
</g>
<g clip-path="url(#clip5900)">
<text style="fill:#000000; fill-opacity:1; font-family:Arial,Helvetica Neue,Helvetica,sans-serif; font-size:66px; text-anchor:middle;" transform="rotate(0, 1297.64, 1559.48)" x="1297.64" y="1559.48">No. of Support vectors</text>
</g>
<g clip-path="url(#clip5900)">
<text style="fill:#000000; fill-opacity:1; font-family:Arial,Helvetica Neue,Helvetica,sans-serif; font-size:66px; text-anchor:middle;" transform="rotate(-90, 89.2861, 736.431)" x="89.2861" y="736.431">count</text>
</g>
<path clip-path="url(#clip5902)" d="
M429.209 1347.27 L429.209 1386.61 L730.799 1386.61 L730.799 1347.27 L429.209 1347.27 L429.209 1347.27  Z
  " fill="#009af9" fill-rule="evenodd" fill-opacity="1"/>
<polyline clip-path="url(#clip5902)" style="stroke:#000000; stroke-width:4; stroke-opacity:1; fill:none" points="
  429.209,1347.27 429.209,1386.61 730.799,1386.61 730.799,1347.27 429.209,1347.27 
  "/>
<path clip-path="url(#clip5902)" d="
M730.799 1281.71 L730.799 1386.61 L1032.39 1386.61 L1032.39 1281.71 L730.799 1281.71 L730.799 1281.71  Z
  " fill="#009af9" fill-rule="evenodd" fill-opacity="1"/>
<polyline clip-path="url(#clip5902)" style="stroke:#000000; stroke-width:4; stroke-opacity:1; fill:none" points="
  730.799,1281.71 730.799,1386.61 1032.39,1386.61 1032.39,1281.71 730.799,1281.71 
  "/>
<path clip-path="url(#clip5902)" d="
M1032.39 1337.43 L1032.39 1386.61 L1333.98 1386.61 L1333.98 1337.43 L1032.39 1337.43 L1032.39 1337.43  Z
  " fill="#009af9" fill-rule="evenodd" fill-opacity="1"/>
<polyline clip-path="url(#clip5902)" style="stroke:#000000; stroke-width:4; stroke-opacity:1; fill:none" points="
  1032.39,1337.43 1032.39,1386.61 1333.98,1386.61 1333.98,1337.43 1032.39,1337.43 
  "/>
<path clip-path="url(#clip5902)" d="
M1333.98 1353.83 L1333.98 1386.61 L1635.57 1386.61 L1635.57 1353.83 L1333.98 1353.83 L1333.98 1353.83  Z
  " fill="#009af9" fill-rule="evenodd" fill-opacity="1"/>
<polyline clip-path="url(#clip5902)" style="stroke:#000000; stroke-width:4; stroke-opacity:1; fill:none" points="
  1333.98,1353.83 1333.98,1386.61 1635.57,1386.61 1635.57,1353.83 1333.98,1353.83 
  "/>
<path clip-path="url(#clip5902)" d="
M1635.57 1386.61 L1635.57 1386.61 L1937.16 1386.61 L1937.16 1386.61 L1635.57 1386.61 L1635.57 1386.61  Z
  " fill="#009af9" fill-rule="evenodd" fill-opacity="1"/>
<polyline clip-path="url(#clip5902)" style="stroke:#000000; stroke-width:4; stroke-opacity:1; fill:none" points="
  1635.57,1386.61 1635.57,1386.61 1937.16,1386.61 1635.57,1386.61 
  "/>
<path clip-path="url(#clip5902)" d="
M1937.16 1383.33 L1937.16 1386.61 L2238.75 1386.61 L2238.75 1383.33 L1937.16 1383.33 L1937.16 1383.33  Z
  " fill="#009af9" fill-rule="evenodd" fill-opacity="1"/>
<polyline clip-path="url(#clip5902)" style="stroke:#000000; stroke-width:4; stroke-opacity:1; fill:none" points="
  1937.16,1383.33 1937.16,1386.61 2238.75,1386.61 2238.75,1383.33 1937.16,1383.33 
  "/>
<path clip-path="url(#clip5902)" d="
M308.574 1310.12 L308.574 1386.61 L338.733 1386.61 L338.733 1310.12 L308.574 1310.12 L308.574 1310.12  Z
  " fill="#e26f46" fill-rule="evenodd" fill-opacity="1"/>
<polyline clip-path="url(#clip5902)" style="stroke:#000000; stroke-width:4; stroke-opacity:1; fill:none" points="
  308.574,1310.12 308.574,1386.61 338.733,1386.61 338.733,1310.12 308.574,1310.12 
  "/>
<path clip-path="url(#clip5902)" d="
M338.733 1386.61 L338.733 1386.61 L368.891 1386.61 L368.891 1386.61 L338.733 1386.61 L338.733 1386.61  Z
  " fill="#e26f46" fill-rule="evenodd" fill-opacity="1"/>
<polyline clip-path="url(#clip5902)" style="stroke:#000000; stroke-width:4; stroke-opacity:1; fill:none" points="
  338.733,1386.61 338.733,1386.61 368.891,1386.61 338.733,1386.61 
  "/>
<path clip-path="url(#clip5902)" d="
M368.891 1080.64 L368.891 1386.61 L399.05 1386.61 L399.05 1080.64 L368.891 1080.64 L368.891 1080.64  Z
  " fill="#e26f46" fill-rule="evenodd" fill-opacity="1"/>
<polyline clip-path="url(#clip5902)" style="stroke:#000000; stroke-width:4; stroke-opacity:1; fill:none" points="
  368.891,1080.64 368.891,1386.61 399.05,1386.61 399.05,1080.64 368.891,1080.64 
  "/>
<path clip-path="url(#clip5902)" d="
M399.05 1386.61 L399.05 1386.61 L429.209 1386.61 L429.209 1386.61 L399.05 1386.61 L399.05 1386.61  Z
  " fill="#e26f46" fill-rule="evenodd" fill-opacity="1"/>
<polyline clip-path="url(#clip5902)" style="stroke:#000000; stroke-width:4; stroke-opacity:1; fill:none" points="
  399.05,1386.61 399.05,1386.61 429.209,1386.61 399.05,1386.61 
  "/>
<path clip-path="url(#clip5902)" d="
M429.209 774.677 L429.209 1386.61 L459.368 1386.61 L459.368 774.677 L429.209 774.677 L429.209 774.677  Z
  " fill="#e26f46" fill-rule="evenodd" fill-opacity="1"/>
<polyline clip-path="url(#clip5902)" style="stroke:#000000; stroke-width:4; stroke-opacity:1; fill:none" points="
  429.209,774.677 429.209,1386.61 459.368,1386.61 459.368,774.677 429.209,774.677 
  "/>
<path clip-path="url(#clip5902)" d="
M459.368 1386.61 L459.368 1386.61 L489.527 1386.61 L489.527 1386.61 L459.368 1386.61 L459.368 1386.61  Z
  " fill="#e26f46" fill-rule="evenodd" fill-opacity="1"/>
<polyline clip-path="url(#clip5902)" style="stroke:#000000; stroke-width:4; stroke-opacity:1; fill:none" points="
  459.368,1386.61 459.368,1386.61 489.527,1386.61 459.368,1386.61 
  "/>
<path clip-path="url(#clip5902)" d="
M489.527 86.2547 L489.527 1386.61 L519.686 1386.61 L519.686 86.2547 L489.527 86.2547 L489.527 86.2547  Z
  " fill="#e26f46" fill-rule="evenodd" fill-opacity="1"/>
<polyline clip-path="url(#clip5902)" style="stroke:#000000; stroke-width:4; stroke-opacity:1; fill:none" points="
  489.527,86.2547 489.527,1386.61 519.686,1386.61 519.686,86.2547 489.527,86.2547 
  "/>
<path clip-path="url(#clip5900)" d="
M1939.1 312.204 L2280.76 312.204 L2280.76 130.764 L1939.1 130.764  Z
  " fill="#ffffff" fill-rule="evenodd" fill-opacity="1"/>
<polyline clip-path="url(#clip5900)" style="stroke:#000000; stroke-width:4; stroke-opacity:1; fill:none" points="
  1939.1,312.204 2280.76,312.204 2280.76,130.764 1939.1,130.764 1939.1,312.204 
  "/>
<path clip-path="url(#clip5900)" d="
M1963.1 215.436 L2107.1 215.436 L2107.1 167.052 L1963.1 167.052 L1963.1 215.436  Z
  " fill="#009af9" fill-rule="evenodd" fill-opacity="1"/>
<polyline clip-path="url(#clip5900)" style="stroke:#000000; stroke-width:4; stroke-opacity:1; fill:none" points="
  1963.1,215.436 2107.1,215.436 2107.1,167.052 1963.1,167.052 1963.1,215.436 
  "/>
<g clip-path="url(#clip5900)">
<text style="fill:#000000; fill-opacity:1; font-family:Arial,Helvetica Neue,Helvetica,sans-serif; font-size:48px; text-anchor:start;" transform="rotate(0, 2131.1, 208.744)" x="2131.1" y="208.744">false</text>
</g>
<path clip-path="url(#clip5900)" d="
M1963.1 275.916 L2107.1 275.916 L2107.1 227.532 L1963.1 227.532 L1963.1 275.916  Z
  " fill="#e26f46" fill-rule="evenodd" fill-opacity="1"/>
<polyline clip-path="url(#clip5900)" style="stroke:#000000; stroke-width:4; stroke-opacity:1; fill:none" points="
  1963.1,275.916 2107.1,275.916 2107.1,227.532 1963.1,227.532 1963.1,275.916 
  "/>
<g clip-path="url(#clip5900)">
<text style="fill:#000000; fill-opacity:1; font-family:Arial,Helvetica Neue,Helvetica,sans-serif; font-size:48px; text-anchor:start;" transform="rotate(0, 2131.1, 269.224)" x="2131.1" y="269.224">true</text>
</g>
</svg>
