<?xml version="1.0" encoding="utf-8"?>
<svg xmlns="http://www.w3.org/2000/svg" xmlns:xlink="http://www.w3.org/1999/xlink" width="600" height="400" viewBox="0 0 2400 1600">
<defs>
  <clipPath id="clip4300">
    <rect x="0" y="0" width="2400" height="1600"/>
  </clipPath>
</defs>
<path clip-path="url(#clip4300)" d="
M0 1600 L2400 1600 L2400 0 L0 0  Z
  " fill="#ffffff" fill-rule="evenodd" fill-opacity="1"/>
<defs>
  <clipPath id="clip4301">
    <rect x="480" y="0" width="1681" height="1600"/>
  </clipPath>
</defs>
<path clip-path="url(#clip4300)" d="
M242.516 1425.62 L2352.76 1425.62 L2352.76 47.2441 L242.516 47.2441  Z
  " fill="#ffffff" fill-rule="evenodd" fill-opacity="1"/>
<defs>
  <clipPath id="clip4302">
    <rect x="242" y="47" width="2111" height="1379"/>
  </clipPath>
</defs>
<polyline clip-path="url(#clip4302)" style="stroke:#000000; stroke-width:2; stroke-opacity:0.1; fill:none" points="
  546.394,1425.62 546.394,47.2441 
  "/>
<polyline clip-path="url(#clip4302)" style="stroke:#000000; stroke-width:2; stroke-opacity:0.1; fill:none" points="
  922.015,1425.62 922.015,47.2441 
  "/>
<polyline clip-path="url(#clip4302)" style="stroke:#000000; stroke-width:2; stroke-opacity:0.1; fill:none" points="
  1297.64,1425.62 1297.64,47.2441 
  "/>
<polyline clip-path="url(#clip4302)" style="stroke:#000000; stroke-width:2; stroke-opacity:0.1; fill:none" points="
  1673.26,1425.62 1673.26,47.2441 
  "/>
<polyline clip-path="url(#clip4302)" style="stroke:#000000; stroke-width:2; stroke-opacity:0.1; fill:none" points="
  2048.88,1425.62 2048.88,47.2441 
  "/>
<polyline clip-path="url(#clip4302)" style="stroke:#000000; stroke-width:2; stroke-opacity:0.1; fill:none" points="
  242.516,1386.61 2352.76,1386.61 
  "/>
<polyline clip-path="url(#clip4302)" style="stroke:#000000; stroke-width:2; stroke-opacity:0.1; fill:none" points="
  242.516,1154.4 2352.76,1154.4 
  "/>
<polyline clip-path="url(#clip4302)" style="stroke:#000000; stroke-width:2; stroke-opacity:0.1; fill:none" points="
  242.516,922.196 2352.76,922.196 
  "/>
<polyline clip-path="url(#clip4302)" style="stroke:#000000; stroke-width:2; stroke-opacity:0.1; fill:none" points="
  242.516,689.99 2352.76,689.99 
  "/>
<polyline clip-path="url(#clip4302)" style="stroke:#000000; stroke-width:2; stroke-opacity:0.1; fill:none" points="
  242.516,457.784 2352.76,457.784 
  "/>
<polyline clip-path="url(#clip4302)" style="stroke:#000000; stroke-width:2; stroke-opacity:0.1; fill:none" points="
  242.516,225.578 2352.76,225.578 
  "/>
<polyline clip-path="url(#clip4300)" style="stroke:#000000; stroke-width:4; stroke-opacity:1; fill:none" points="
  242.516,1425.62 2352.76,1425.62 
  "/>
<polyline clip-path="url(#clip4300)" style="stroke:#000000; stroke-width:4; stroke-opacity:1; fill:none" points="
  242.516,1425.62 242.516,47.2441 
  "/>
<polyline clip-path="url(#clip4300)" style="stroke:#000000; stroke-width:4; stroke-opacity:1; fill:none" points="
  546.394,1425.62 546.394,1404.94 
  "/>
<polyline clip-path="url(#clip4300)" style="stroke:#000000; stroke-width:4; stroke-opacity:1; fill:none" points="
  922.015,1425.62 922.015,1404.94 
  "/>
<polyline clip-path="url(#clip4300)" style="stroke:#000000; stroke-width:4; stroke-opacity:1; fill:none" points="
  1297.64,1425.62 1297.64,1404.94 
  "/>
<polyline clip-path="url(#clip4300)" style="stroke:#000000; stroke-width:4; stroke-opacity:1; fill:none" points="
  1673.26,1425.62 1673.26,1404.94 
  "/>
<polyline clip-path="url(#clip4300)" style="stroke:#000000; stroke-width:4; stroke-opacity:1; fill:none" points="
  2048.88,1425.62 2048.88,1404.94 
  "/>
<polyline clip-path="url(#clip4300)" style="stroke:#000000; stroke-width:4; stroke-opacity:1; fill:none" points="
  242.516,1386.61 274.17,1386.61 
  "/>
<polyline clip-path="url(#clip4300)" style="stroke:#000000; stroke-width:4; stroke-opacity:1; fill:none" points="
  242.516,1154.4 274.17,1154.4 
  "/>
<polyline clip-path="url(#clip4300)" style="stroke:#000000; stroke-width:4; stroke-opacity:1; fill:none" points="
  242.516,922.196 274.17,922.196 
  "/>
<polyline clip-path="url(#clip4300)" style="stroke:#000000; stroke-width:4; stroke-opacity:1; fill:none" points="
  242.516,689.99 274.17,689.99 
  "/>
<polyline clip-path="url(#clip4300)" style="stroke:#000000; stroke-width:4; stroke-opacity:1; fill:none" points="
  242.516,457.784 274.17,457.784 
  "/>
<polyline clip-path="url(#clip4300)" style="stroke:#000000; stroke-width:4; stroke-opacity:1; fill:none" points="
  242.516,225.578 274.17,225.578 
  "/>
<g clip-path="url(#clip4300)">
<text style="fill:#000000; fill-opacity:1; font-family:Arial,Helvetica Neue,Helvetica,sans-serif; font-size:48px; text-anchor:middle;" transform="rotate(0, 546.394, 1479.62)" x="546.394" y="1479.62">30</text>
</g>
<g clip-path="url(#clip4300)">
<text style="fill:#000000; fill-opacity:1; font-family:Arial,Helvetica Neue,Helvetica,sans-serif; font-size:48px; text-anchor:middle;" transform="rotate(0, 922.015, 1479.62)" x="922.015" y="1479.62">40</text>
</g>
<g clip-path="url(#clip4300)">
<text style="fill:#000000; fill-opacity:1; font-family:Arial,Helvetica Neue,Helvetica,sans-serif; font-size:48px; text-anchor:middle;" transform="rotate(0, 1297.64, 1479.62)" x="1297.64" y="1479.62">50</text>
</g>
<g clip-path="url(#clip4300)">
<text style="fill:#000000; fill-opacity:1; font-family:Arial,Helvetica Neue,Helvetica,sans-serif; font-size:48px; text-anchor:middle;" transform="rotate(0, 1673.26, 1479.62)" x="1673.26" y="1479.62">60</text>
</g>
<g clip-path="url(#clip4300)">
<text style="fill:#000000; fill-opacity:1; font-family:Arial,Helvetica Neue,Helvetica,sans-serif; font-size:48px; text-anchor:middle;" transform="rotate(0, 2048.88, 1479.62)" x="2048.88" y="1479.62">70</text>
</g>
<g clip-path="url(#clip4300)">
<text style="fill:#000000; fill-opacity:1; font-family:Arial,Helvetica Neue,Helvetica,sans-serif; font-size:48px; text-anchor:end;" transform="rotate(0, 218.516, 1404.11)" x="218.516" y="1404.11">0.00</text>
</g>
<g clip-path="url(#clip4300)">
<text style="fill:#000000; fill-opacity:1; font-family:Arial,Helvetica Neue,Helvetica,sans-serif; font-size:48px; text-anchor:end;" transform="rotate(0, 218.516, 1171.9)" x="218.516" y="1171.9">0.01</text>
</g>
<g clip-path="url(#clip4300)">
<text style="fill:#000000; fill-opacity:1; font-family:Arial,Helvetica Neue,Helvetica,sans-serif; font-size:48px; text-anchor:end;" transform="rotate(0, 218.516, 939.696)" x="218.516" y="939.696">0.02</text>
</g>
<g clip-path="url(#clip4300)">
<text style="fill:#000000; fill-opacity:1; font-family:Arial,Helvetica Neue,Helvetica,sans-serif; font-size:48px; text-anchor:end;" transform="rotate(0, 218.516, 707.49)" x="218.516" y="707.49">0.03</text>
</g>
<g clip-path="url(#clip4300)">
<text style="fill:#000000; fill-opacity:1; font-family:Arial,Helvetica Neue,Helvetica,sans-serif; font-size:48px; text-anchor:end;" transform="rotate(0, 218.516, 475.284)" x="218.516" y="475.284">0.04</text>
</g>
<g clip-path="url(#clip4300)">
<text style="fill:#000000; fill-opacity:1; font-family:Arial,Helvetica Neue,Helvetica,sans-serif; font-size:48px; text-anchor:end;" transform="rotate(0, 218.516, 243.078)" x="218.516" y="243.078">0.05</text>
</g>
<g clip-path="url(#clip4300)">
<text style="fill:#000000; fill-opacity:1; font-family:Arial,Helvetica Neue,Helvetica,sans-serif; font-size:66px; text-anchor:middle;" transform="rotate(0, 1297.64, 1559.48)" x="1297.64" y="1559.48">No. of Support vectors</text>
</g>
<g clip-path="url(#clip4300)">
<text style="fill:#000000; fill-opacity:1; font-family:Arial,Helvetica Neue,Helvetica,sans-serif; font-size:66px; text-anchor:middle;" transform="rotate(-90, 89.2861, 736.431)" x="89.2861" y="736.431">count</text>
</g>
<path clip-path="url(#clip4302)" d="
M358.583 1340.17 L358.583 1386.61 L546.394 1386.61 L546.394 1340.17 L358.583 1340.17 L358.583 1340.17  Z
  " fill="#009af9" fill-rule="evenodd" fill-opacity="1"/>
<polyline clip-path="url(#clip4302)" style="stroke:#000000; stroke-width:4; stroke-opacity:1; fill:none" points="
  358.583,1340.17 358.583,1386.61 546.394,1386.61 546.394,1340.17 358.583,1340.17 
  "/>
<path clip-path="url(#clip4302)" d="
M546.394 1340.17 L546.394 1386.61 L734.204 1386.61 L734.204 1340.17 L546.394 1340.17 L546.394 1340.17  Z
  " fill="#009af9" fill-rule="evenodd" fill-opacity="1"/>
<polyline clip-path="url(#clip4302)" style="stroke:#000000; stroke-width:4; stroke-opacity:1; fill:none" points="
  546.394,1340.17 546.394,1386.61 734.204,1386.61 734.204,1340.17 546.394,1340.17 
  "/>
<path clip-path="url(#clip4302)" d="
M734.204 1200.84 L734.204 1386.61 L922.015 1386.61 L922.015 1200.84 L734.204 1200.84 L734.204 1200.84  Z
  " fill="#009af9" fill-rule="evenodd" fill-opacity="1"/>
<polyline clip-path="url(#clip4302)" style="stroke:#000000; stroke-width:4; stroke-opacity:1; fill:none" points="
  734.204,1200.84 734.204,1386.61 922.015,1386.61 922.015,1200.84 734.204,1200.84 
  "/>
<path clip-path="url(#clip4302)" d="
M922.015 643.549 L922.015 1386.61 L1109.83 1386.61 L1109.83 643.549 L922.015 643.549 L922.015 643.549  Z
  " fill="#009af9" fill-rule="evenodd" fill-opacity="1"/>
<polyline clip-path="url(#clip4302)" style="stroke:#000000; stroke-width:4; stroke-opacity:1; fill:none" points="
  922.015,643.549 922.015,1386.61 1109.83,1386.61 1109.83,643.549 922.015,643.549 
  "/>
<path clip-path="url(#clip4302)" d="
M1109.83 411.343 L1109.83 1386.61 L1297.64 1386.61 L1297.64 411.343 L1109.83 411.343 L1109.83 411.343  Z
  " fill="#009af9" fill-rule="evenodd" fill-opacity="1"/>
<polyline clip-path="url(#clip4302)" style="stroke:#000000; stroke-width:4; stroke-opacity:1; fill:none" points="
  1109.83,411.343 1109.83,1386.61 1297.64,1386.61 1297.64,411.343 1109.83,411.343 
  "/>
<path clip-path="url(#clip4302)" d="
M1297.64 86.2547 L1297.64 1386.61 L1485.45 1386.61 L1485.45 86.2547 L1297.64 86.2547 L1297.64 86.2547  Z
  " fill="#009af9" fill-rule="evenodd" fill-opacity="1"/>
<polyline clip-path="url(#clip4302)" style="stroke:#000000; stroke-width:4; stroke-opacity:1; fill:none" points="
  1297.64,86.2547 1297.64,1386.61 1485.45,1386.61 1485.45,86.2547 1297.64,86.2547 
  "/>
<path clip-path="url(#clip4302)" d="
M1485.45 504.225 L1485.45 1386.61 L1673.26 1386.61 L1673.26 504.225 L1485.45 504.225 L1485.45 504.225  Z
  " fill="#009af9" fill-rule="evenodd" fill-opacity="1"/>
<polyline clip-path="url(#clip4302)" style="stroke:#000000; stroke-width:4; stroke-opacity:1; fill:none" points="
  1485.45,504.225 1485.45,1386.61 1673.26,1386.61 1673.26,504.225 1485.45,504.225 
  "/>
<path clip-path="url(#clip4302)" d="
M1673.26 1154.4 L1673.26 1386.61 L1861.07 1386.61 L1861.07 1154.4 L1673.26 1154.4 L1673.26 1154.4  Z
  " fill="#009af9" fill-rule="evenodd" fill-opacity="1"/>
<polyline clip-path="url(#clip4302)" style="stroke:#000000; stroke-width:4; stroke-opacity:1; fill:none" points="
  1673.26,1154.4 1673.26,1386.61 1861.07,1386.61 1861.07,1154.4 1673.26,1154.4 
  "/>
<path clip-path="url(#clip4302)" d="
M1861.07 1200.84 L1861.07 1386.61 L2048.88 1386.61 L2048.88 1200.84 L1861.07 1200.84 L1861.07 1200.84  Z
  " fill="#009af9" fill-rule="evenodd" fill-opacity="1"/>
<polyline clip-path="url(#clip4302)" style="stroke:#000000; stroke-width:4; stroke-opacity:1; fill:none" points="
  1861.07,1200.84 1861.07,1386.61 2048.88,1386.61 2048.88,1200.84 1861.07,1200.84 
  "/>
<path clip-path="url(#clip4302)" d="
M2048.88 1340.17 L2048.88 1386.61 L2236.69 1386.61 L2236.69 1340.17 L2048.88 1340.17 L2048.88 1340.17  Z
  " fill="#009af9" fill-rule="evenodd" fill-opacity="1"/>
<polyline clip-path="url(#clip4302)" style="stroke:#000000; stroke-width:4; stroke-opacity:1; fill:none" points="
  2048.88,1340.17 2048.88,1386.61 2236.69,1386.61 2236.69,1340.17 2048.88,1340.17 
  "/>
<path clip-path="url(#clip4300)" d="
M1939.1 251.724 L2280.76 251.724 L2280.76 130.764 L1939.1 130.764  Z
  " fill="#ffffff" fill-rule="evenodd" fill-opacity="1"/>
<polyline clip-path="url(#clip4300)" style="stroke:#000000; stroke-width:4; stroke-opacity:1; fill:none" points="
  1939.1,251.724 2280.76,251.724 2280.76,130.764 1939.1,130.764 1939.1,251.724 
  "/>
<path clip-path="url(#clip4300)" d="
M1963.1 215.436 L2107.1 215.436 L2107.1 167.052 L1963.1 167.052 L1963.1 215.436  Z
  " fill="#009af9" fill-rule="evenodd" fill-opacity="1"/>
<polyline clip-path="url(#clip4300)" style="stroke:#000000; stroke-width:4; stroke-opacity:1; fill:none" points="
  1963.1,215.436 2107.1,215.436 2107.1,167.052 1963.1,167.052 1963.1,215.436 
  "/>
<g clip-path="url(#clip4300)">
<text style="fill:#000000; fill-opacity:1; font-family:Arial,Helvetica Neue,Helvetica,sans-serif; font-size:48px; text-anchor:start;" transform="rotate(0, 2131.1, 208.744)" x="2131.1" y="208.744">false</text>
</g>
</svg>
